<svg width="184" height="28" viewBox="0 0 184 28" fill="none" xmlns="http://www.w3.org/2000/svg">
<mask id="path-1-outside-1_29_4" maskUnits="userSpaceOnUse" x="0.00250244" y="-0.579987" width="184" height="29" fill="black">
<rect fill="white" x="0.00250244" y="-0.579987" width="184" height="29"/>
<path d="M18.9545 8.98601C18.9545 9.93935 18.7118 10.8493 18.2265 11.716C17.7585 12.5827 17.1172 13.3453 16.3025 14.004C15.5052 14.6453 14.5605 15.1567 13.4685 15.538C12.3938 15.9193 11.2498 16.11 10.0365 16.11C9.60317 16.11 9.2565 16.058 8.9965 15.954C8.75384 15.8327 8.4765 15.6073 8.1645 15.278C7.29784 17.1673 6.58717 18.9093 6.0325 20.504C5.49517 22.0813 5.0705 23.6153 4.7585 25.106C4.09984 24.95 3.5625 24.6727 3.1465 24.274C2.7305 23.8927 2.34917 23.4073 2.0025 22.818C2.17584 22.4887 2.38384 22.0553 2.6265 21.518C2.86917 20.9807 3.16384 20.322 3.5105 19.542C3.85717 18.7447 4.25584 17.8 4.7065 16.708C5.1745 15.5987 5.7205 14.3073 6.3445 12.834C6.62184 12.158 6.8645 11.5687 7.0725 11.066C7.2805 10.5633 7.4625 10.0953 7.6185 9.66201C7.7745 9.21135 7.91317 8.76935 8.0345 8.33601C8.17317 7.90268 8.31184 7.42601 8.4505 6.90601C7.63584 7.16601 6.88184 7.46935 6.1885 7.81601C5.5125 8.16268 4.94917 8.52668 4.4985 8.90801C4.3425 8.80401 4.17784 8.64801 4.0045 8.44001C3.8485 8.23201 3.70117 8.00668 3.5625 7.76401C3.42384 7.50401 3.3025 7.24401 3.1985 6.98401C3.0945 6.72401 3.03384 6.49001 3.0165 6.28201C3.51917 5.93535 4.14317 5.61468 4.8885 5.32001C5.63384 5.02535 6.43117 4.77401 7.2805 4.56601C8.12984 4.34068 9.00517 4.16735 9.9065 4.04601C10.8252 3.92468 11.7005 3.86401 12.5325 3.86401C13.5205 3.86401 14.4132 3.99401 15.2105 4.25401C16.0078 4.49668 16.6838 4.84335 17.2385 5.29401C17.7932 5.74468 18.2178 6.28201 18.5125 6.90601C18.8072 7.53001 18.9545 8.22335 18.9545 8.98601ZM14.3265 5.86601C13.6678 5.86601 12.9918 5.91801 12.2985 6.02201L12.6105 6.49001C12.4372 6.71535 12.2205 7.05335 11.9605 7.50401C11.7005 7.95468 11.4145 8.50068 11.1025 9.14201C10.7905 9.76601 10.4438 10.468 10.0625 11.248C9.6985 12.028 9.3085 12.8513 8.8925 13.718C10.2445 13.718 11.4752 13.5967 12.5845 13.354C13.6938 13.094 14.6385 12.7473 15.4185 12.314C16.2158 11.8633 16.8312 11.3433 17.2645 10.754C17.7152 10.1647 17.9405 9.53201 17.9405 8.85601C17.9405 7.95468 17.6372 7.23535 17.0305 6.69801C16.4238 6.14335 15.5225 5.86601 14.3265 5.86601Z"/>
<path d="M26.7025 12.236C26.6332 13.3107 26.4425 14.238 26.1305 15.018C25.8185 15.7807 25.3678 16.4567 24.7785 17.046C24.2065 17.618 23.5045 18.138 22.6725 18.606C21.8405 19.074 20.8698 19.5247 19.7605 19.958C19.7605 20.062 19.7518 20.1747 19.7345 20.296C19.7345 20.4 19.7345 20.5127 19.7345 20.634C19.7345 20.8593 19.7518 21.0933 19.7865 21.336C19.8212 21.5787 19.8818 21.804 19.9685 22.012C20.0552 22.22 20.1765 22.3933 20.3325 22.532C20.4885 22.6533 20.6878 22.714 20.9305 22.714C21.3985 22.714 21.8578 22.61 22.3085 22.402C22.7592 22.194 23.1838 21.9427 23.5825 21.648C23.9985 21.336 24.3798 21.0067 24.7265 20.66C25.0905 20.296 25.4112 19.9667 25.6885 19.672C25.8618 19.828 26.0092 19.9753 26.1305 20.114C25.3505 21.154 24.4925 22.0207 23.5565 22.714C22.6378 23.39 21.7625 23.8233 20.9305 24.014C19.7345 23.8753 18.7985 23.442 18.1225 22.714C17.4638 21.9687 17.1345 21.076 17.1345 20.036C17.1345 19.3253 17.2298 18.606 17.4205 17.878C17.6285 17.1327 17.9058 16.422 18.2525 15.746C18.6165 15.0527 19.0325 14.4027 19.5005 13.796C19.9858 13.1893 20.4972 12.6607 21.0345 12.21C21.5892 11.7593 22.1525 11.404 22.7245 11.144C23.3138 10.884 23.8945 10.754 24.4665 10.754C25.2638 10.858 26.0092 11.352 26.7025 12.236ZM24.9085 13.094C24.4405 13.1633 23.9552 13.354 23.4525 13.666C22.9498 13.978 22.4732 14.394 22.0225 14.914C21.5892 15.434 21.1905 16.0407 20.8265 16.734C20.4625 17.4273 20.1765 18.1727 19.9685 18.97C21.3552 18.2767 22.5078 17.4273 23.4265 16.422C24.3452 15.3993 24.8392 14.29 24.9085 13.094Z"/>
<path d="M27.2822 22.48C27.3689 21.9773 27.5162 21.3187 27.7242 20.504C27.9496 19.672 28.2096 18.7967 28.5042 17.878C28.7989 16.942 29.1109 16.006 29.4402 15.07C29.7696 14.134 30.0902 13.2933 30.4022 12.548C30.6276 12.0107 30.8269 11.5947 31.0002 11.3C31.1736 10.988 31.3642 10.728 31.5722 10.52C31.8149 10.5547 32.0662 10.6153 32.3262 10.702C32.5862 10.7887 32.8376 10.8927 33.0802 11.014C33.3229 11.1353 33.5396 11.2653 33.7302 11.404C33.9209 11.5253 34.0682 11.6467 34.1722 11.768C33.7042 12.3227 33.2882 12.9553 32.9242 13.666C32.5776 14.3767 32.2222 15.2867 31.8582 16.396C32.7942 15.564 33.6176 14.7667 34.3282 14.004C35.0562 13.2413 35.7322 12.392 36.3562 11.456C36.4602 11.3693 36.6422 11.326 36.9022 11.326C37.1449 11.326 37.3789 11.3693 37.6042 11.456C37.8296 11.5253 37.9856 11.6293 38.0722 11.768C37.7602 12.6 37.6042 13.4233 37.6042 14.238C37.6042 15.0007 37.7169 15.5727 37.9422 15.954C37.9249 16.058 37.8036 16.2573 37.5782 16.552C37.3702 16.8467 37.1362 17.124 36.8762 17.384C36.4082 17.1413 35.9922 16.812 35.6282 16.396C35.2642 15.9627 34.9956 15.4947 34.8222 14.992C34.0076 15.564 33.3142 16.1273 32.7422 16.682C32.1702 17.2193 31.6762 17.826 31.2602 18.502C30.8616 19.1607 30.5149 19.9233 30.2202 20.79C29.9429 21.6567 29.6742 22.688 29.4142 23.884C29.2582 23.8667 29.0676 23.806 28.8422 23.702C28.6342 23.6153 28.4176 23.5027 28.1922 23.364C27.9842 23.2253 27.7936 23.078 27.6202 22.922C27.4469 22.766 27.3342 22.6187 27.2822 22.48Z"/>
<path d="M46.9563 12.652C46.939 12.9813 46.8783 13.328 46.7743 13.692C46.6876 14.0387 46.575 14.3593 46.4363 14.654C46.2976 14.9313 46.1503 15.1653 45.9943 15.356C45.8383 15.5467 45.691 15.642 45.5523 15.642C45.3616 15.6247 45.249 15.4947 45.2143 15.252C45.2143 15.2 45.2316 15.122 45.2663 15.018C45.3183 14.8967 45.3703 14.7667 45.4223 14.628C45.4743 14.4893 45.5176 14.3507 45.5523 14.212C45.6043 14.0733 45.6303 13.952 45.6303 13.848C45.6303 13.6053 45.5696 13.406 45.4483 13.25C45.3443 13.0767 45.197 12.99 45.0063 12.99C44.313 12.99 43.7843 13.4233 43.4203 14.29C43.0563 15.1567 42.8743 16.4307 42.8743 18.112C42.8743 18.2853 42.883 18.3893 42.9003 18.424C43.2643 18.4067 43.585 18.398 43.8623 18.398C44.157 18.3807 44.443 18.372 44.7203 18.372C44.7376 18.4067 44.7463 18.476 44.7463 18.58C44.7463 18.736 44.7116 18.8487 44.6423 18.918C44.2436 19.0047 43.923 19.0827 43.6803 19.152C43.455 19.204 43.2816 19.256 43.1603 19.308C43.039 19.36 42.961 19.4207 42.9263 19.49C42.909 19.542 42.9003 19.62 42.9003 19.724C42.9003 19.8627 42.9003 20.0013 42.9003 20.14C42.9176 20.2787 42.9263 20.452 42.9263 20.66C42.9263 22.116 42.5276 23.286 41.7303 24.17C40.9503 25.054 39.8583 25.5653 38.4543 25.704C38.2116 25.6867 37.9603 25.6173 37.7003 25.496C37.4403 25.3747 37.189 25.2187 36.9463 25.028C36.721 24.8373 36.5216 24.6207 36.3483 24.378C36.175 24.1527 36.0536 23.9187 35.9843 23.676C35.9843 23.0173 36.123 22.3933 36.4003 21.804C36.6776 21.1973 37.0503 20.6687 37.5183 20.218C38.0036 19.75 38.567 19.3773 39.2083 19.1C39.867 18.8053 40.5776 18.632 41.3403 18.58C41.3403 18.1467 41.297 17.722 41.2103 17.306C41.1236 16.89 41.0283 16.4913 40.9243 16.11C40.8376 15.7113 40.751 15.33 40.6643 14.966C40.5776 14.5847 40.5343 14.212 40.5343 13.848C40.5343 13.38 40.6296 12.9207 40.8203 12.47C41.011 12.002 41.2623 11.5773 41.5743 11.196C41.8863 10.7973 42.2503 10.4593 42.6663 10.182C43.0823 9.90468 43.5156 9.71401 43.9663 9.61001C44.157 9.66201 44.4083 9.81801 44.7203 10.078C45.0496 10.3207 45.3703 10.598 45.6823 10.91C45.9943 11.222 46.2716 11.5427 46.5143 11.872C46.757 12.184 46.9043 12.444 46.9563 12.652ZM38.3763 24.508C38.7923 24.3347 39.1823 24.0833 39.5463 23.754C39.9276 23.4247 40.257 23.052 40.5343 22.636C40.8116 22.22 41.0283 21.778 41.1843 21.31C41.3576 20.842 41.4443 20.3827 41.4443 19.932C41.0976 19.984 40.7163 20.1487 40.3003 20.426C39.8843 20.686 39.4943 21.0067 39.1303 21.388C38.7663 21.752 38.463 22.1333 38.2203 22.532C37.9776 22.9307 37.8563 23.2773 37.8563 23.572C37.8563 23.9533 38.0296 24.2653 38.3763 24.508Z"/>
<path d="M50.0426 23.91C49.0546 23.806 48.2659 23.3727 47.6766 22.61C47.0872 21.8473 46.7926 20.8767 46.7926 19.698C46.7926 19.0047 46.8966 18.2853 47.1046 17.54C47.3126 16.7947 47.6072 16.0753 47.9886 15.382C48.3699 14.6713 48.8206 14.004 49.3406 13.38C49.8606 12.756 50.4239 12.2187 51.0306 11.768C51.9839 11.0573 52.8766 10.702 53.7086 10.702C54.2632 10.9967 54.8092 11.612 55.3466 12.548C55.4332 12.548 55.5112 12.548 55.5806 12.548C55.6499 12.5307 55.7279 12.522 55.8146 12.522C56.7332 12.522 57.1926 13.3367 57.1926 14.966C57.1926 16.058 57.0106 17.098 56.6466 18.086C56.2999 19.0567 55.8059 19.9407 55.1646 20.738C54.5406 21.5353 53.7866 22.2113 52.9026 22.766C52.0359 23.3033 51.0826 23.6847 50.0426 23.91ZM51.3686 15.72C51.0739 16.1187 50.7966 16.552 50.5366 17.02C50.2766 17.488 50.0512 17.9647 49.8606 18.45C49.6699 18.918 49.5226 19.3773 49.4186 19.828C49.3146 20.2613 49.2626 20.6513 49.2626 20.998C49.2626 21.414 49.3319 21.8127 49.4706 22.194C49.6092 22.5753 49.7652 22.792 49.9386 22.844C50.7186 22.6707 51.4292 22.35 52.0706 21.882C52.7292 21.3967 53.2926 20.7987 53.7606 20.088C54.2459 19.3773 54.6186 18.5713 54.8786 17.67C55.1559 16.7687 55.2946 15.8067 55.2946 14.784C55.2946 14.3333 55.2686 13.978 55.2166 13.718C55.1646 13.458 55.0779 13.2327 54.9566 13.042C54.1939 13.2673 53.5092 13.6313 52.9026 14.134C52.3132 14.6367 51.8019 15.1653 51.3686 15.72Z"/>
<path d="M62.6631 10.39C63.1138 10.5287 63.5385 10.8407 63.9371 11.326C64.3358 11.794 64.6305 12.314 64.8211 12.886C64.6305 13.354 64.3358 13.9173 63.9371 14.576C63.5385 15.2347 63.1398 15.9107 62.7411 16.604C62.3425 17.28 61.9785 17.93 61.6491 18.554C61.3371 19.1607 61.1551 19.6633 61.1031 20.062C61.3805 19.7673 61.6838 19.4293 62.0131 19.048C62.3598 18.6493 62.6891 18.2593 63.0011 17.878C63.3305 17.4793 63.6338 17.124 63.9111 16.812C64.1885 16.4827 64.4051 16.24 64.5611 16.084C64.8905 15.7373 65.2805 15.3387 65.7311 14.888C66.1818 14.42 66.6498 13.9867 67.1351 13.588C67.6378 13.172 68.1405 12.8253 68.6431 12.548C69.1458 12.2533 69.6051 12.106 70.0211 12.106C70.4718 12.106 70.8445 12.262 71.1391 12.574C71.4511 12.8687 71.6938 13.1807 71.8671 13.51C71.8671 13.5447 71.7978 13.5967 71.6591 13.666C71.5378 13.718 71.3558 13.8827 71.1131 14.16C70.8705 14.472 70.5932 14.9053 70.2812 15.46C69.9865 15.9973 69.6918 16.5867 69.3971 17.228C69.1198 17.852 68.8858 18.4933 68.6951 19.152C68.5045 19.8107 68.4091 20.4087 68.4091 20.946C68.4091 21.3793 68.4611 21.6567 68.5651 21.778C68.6865 21.8993 68.8511 21.96 69.0591 21.96C69.2498 21.96 69.4491 21.9167 69.6571 21.83C69.8651 21.7433 70.0298 21.7 70.1511 21.7C70.2205 21.7347 70.2725 21.8127 70.3071 21.934C70.3591 22.038 70.3851 22.1333 70.3851 22.22C70.2465 22.3413 70.0818 22.4627 69.8911 22.584C69.7005 22.7053 69.5011 22.818 69.2931 22.922C69.0851 23.026 68.8771 23.1127 68.6691 23.182C68.4785 23.2513 68.3051 23.286 68.1491 23.286C67.6465 23.286 67.2305 23.208 66.9011 23.052C66.5891 22.9133 66.3378 22.7227 66.1471 22.48C65.9738 22.2373 65.8525 21.9513 65.7831 21.622C65.7138 21.2753 65.6791 20.9113 65.6791 20.53C65.6791 20.322 65.6965 20.088 65.7311 19.828C65.7658 19.568 65.8351 19.2647 65.9391 18.918C66.0431 18.554 66.1905 18.1293 66.3811 17.644C66.5718 17.1413 66.8145 16.5433 67.1091 15.85C67.0745 15.85 66.8405 15.9713 66.4072 16.214C65.9738 16.4567 65.5058 16.8293 65.0031 17.332C64.1885 18.112 63.4518 18.8833 62.7931 19.646C62.1518 20.4087 61.4931 21.258 60.8171 22.194C60.4358 22.7313 60.0978 23.182 59.8031 23.546C59.5258 23.9273 59.2831 24.1787 59.0751 24.3C58.7111 24.092 58.4425 23.7973 58.2691 23.416C58.0958 23.052 57.9658 22.6707 57.8791 22.272C57.8791 21.9427 57.9225 21.5267 58.0091 21.024C58.1131 20.5213 58.2431 19.9667 58.3991 19.36C58.5725 18.736 58.7805 18.086 59.0231 17.41C59.2658 16.734 59.5345 16.058 59.8291 15.382C60.4878 13.8567 61.0858 12.6607 61.6231 11.794C62.1778 10.9273 62.5245 10.4593 62.6631 10.39Z"/>
<path d="M81.4622 12.496C81.6355 12.496 81.8348 12.5307 82.0602 12.6C82.3028 12.652 82.5195 12.73 82.7102 12.834C82.9008 12.9207 83.0568 13.016 83.1782 13.12C83.3168 13.224 83.3862 13.3193 83.3862 13.406C83.0395 14.134 82.7188 14.8707 82.4242 15.616C82.1295 16.344 81.8782 17.046 81.6702 17.722C81.4622 18.398 81.2975 19.0307 81.1762 19.62C81.0722 20.2093 81.0202 20.7207 81.0202 21.154C81.0202 21.6393 81.0722 22.0467 81.1762 22.376C81.2802 22.688 81.4535 22.9133 81.6962 23.052C81.4882 23.1907 81.2195 23.3033 80.8902 23.39C80.5608 23.4767 80.2662 23.52 80.0062 23.52C79.0702 23.52 78.6022 22.8787 78.6022 21.596C78.6022 20.608 78.9315 19.256 79.5902 17.54C79.2435 18.3373 78.8448 19.0913 78.3942 19.802C77.9435 20.4953 77.4842 21.1107 77.0162 21.648C76.5482 22.1853 76.0715 22.6273 75.5862 22.974C75.1182 23.3033 74.6848 23.5027 74.2862 23.572C73.6448 23.5373 73.1248 23.234 72.7262 22.662C72.3275 22.0727 72.1282 21.3273 72.1282 20.426C72.1282 19.4553 72.3362 18.4327 72.7522 17.358C73.1682 16.2833 73.6968 15.2867 74.3382 14.368C74.9968 13.4493 75.7075 12.6867 76.4702 12.08C77.2328 11.456 77.9695 11.1267 78.6802 11.092C78.8535 11.144 79.0442 11.248 79.2522 11.404C79.4775 11.56 79.6855 11.742 79.8762 11.95C80.0842 12.158 80.2575 12.3747 80.3962 12.6C80.5348 12.808 80.6128 12.99 80.6302 13.146C79.9368 13.25 79.2175 13.588 78.4722 14.16C77.7442 14.732 77.0768 15.4253 76.4702 16.24C75.8808 17.0373 75.3955 17.8953 75.0142 18.814C74.6328 19.7327 74.4422 20.5907 74.4422 21.388C74.4422 21.7173 74.5635 21.9253 74.8062 22.012C75.3088 21.908 75.8895 21.4833 76.5482 20.738C77.2068 19.9753 78.0042 18.8053 78.9402 17.228C79.1135 16.916 79.3042 16.5693 79.5122 16.188C79.7375 15.8067 79.9628 15.408 80.1882 14.992C80.4135 14.576 80.6302 14.16 80.8382 13.744C81.0635 13.3107 81.2715 12.8947 81.4622 12.496Z"/>
<path d="M84.6791 21.336C84.6791 20.5733 84.8611 19.5073 85.2251 18.138C85.5891 16.7513 86.1004 15.1393 86.7591 13.302C87.8337 10.3727 88.8391 7.93735 89.7751 5.99601C90.7284 4.03735 91.6557 2.51201 92.5571 1.42001C92.7651 1.45468 93.0164 1.54135 93.3111 1.68001C93.6231 1.81868 93.9264 1.97468 94.2211 2.14801C94.5157 2.30401 94.7757 2.46868 95.0011 2.64201C95.2437 2.81535 95.3997 2.95401 95.4691 3.05801C94.1171 4.65268 92.9297 6.36868 91.9071 8.20601C90.8844 10.0433 89.9484 12.1493 89.0991 14.524C88.3711 16.5693 87.8164 18.4153 87.4351 20.062C87.0537 21.6913 86.8631 23.052 86.8631 24.144C86.8631 24.4387 86.8631 24.6207 86.8631 24.69C86.8631 24.7593 86.8717 24.8287 86.8891 24.898C86.6464 24.8633 86.4384 24.8027 86.2651 24.716C86.0917 24.6293 85.9791 24.5253 85.9271 24.404C85.8924 24.3173 85.7971 24.1873 85.6411 24.014C85.4851 23.858 85.3464 23.7367 85.2251 23.65C85.0691 23.546 84.9391 23.2773 84.8351 22.844C84.7311 22.3933 84.6791 21.8907 84.6791 21.336Z"/>
<path d="M106.899 3.78601C107.558 3.78601 108.242 3.90735 108.953 4.15001C109.664 4.39268 110.288 4.70468 110.825 5.08601C110.652 5.97001 110.487 6.76735 110.331 7.47801C110.192 8.18868 110.062 8.83868 109.941 9.42801C109.82 10 109.698 10.5287 109.577 11.014C109.473 11.482 109.369 11.924 109.265 12.34C108.849 13.9 108.416 15.3127 107.965 16.578C107.532 17.826 107.064 18.9527 106.561 19.958C106.076 20.9633 105.556 21.856 105.001 22.636C104.464 23.416 103.883 24.1007 103.259 24.69C102.652 25.262 102.046 25.73 101.439 26.094C100.832 26.458 100.269 26.692 99.7489 26.796C99.0556 26.796 98.4142 26.718 97.8249 26.562C97.2356 26.406 96.7242 26.1893 96.2909 25.912C95.8749 25.652 95.5456 25.3313 95.3029 24.95C95.0776 24.586 94.9649 24.1787 94.9649 23.728C94.9649 23.2427 95.0862 22.636 95.3289 21.908C95.5716 21.1627 95.9442 20.2873 96.4469 19.282C96.6549 19.2993 96.8976 19.3513 97.1749 19.438C97.4522 19.5247 97.7296 19.6287 98.0069 19.75C98.2842 19.8713 98.5356 20.01 98.7609 20.166C98.9862 20.3047 99.1509 20.4433 99.2549 20.582C98.7002 21.154 98.2496 21.7867 97.9029 22.48C97.5562 23.156 97.3829 23.7453 97.3829 24.248C97.3829 24.5427 97.4349 24.8027 97.5389 25.028C97.6602 25.2707 97.8596 25.4873 98.1369 25.678C99.1942 25.2793 100.226 24.534 101.231 23.442C102.236 22.3673 103.129 21.024 103.909 19.412C104.377 18.4587 104.802 17.3667 105.183 16.136C105.564 14.9053 105.885 13.6747 106.145 12.444C106.422 11.196 106.63 10.0087 106.769 8.88201C106.925 7.73801 107.003 6.77601 107.003 5.99601C107.003 5.87468 106.994 5.71001 106.977 5.50201C106.977 5.27668 106.968 5.05135 106.951 4.82601C106.951 4.58335 106.942 4.36668 106.925 4.17601C106.908 3.98535 106.899 3.85535 106.899 3.78601Z"/>
<path d="M113.037 23.91C112.049 23.806 111.26 23.3727 110.671 22.61C110.081 21.8473 109.787 20.8767 109.787 19.698C109.787 19.0047 109.891 18.2853 110.099 17.54C110.307 16.7947 110.601 16.0753 110.983 15.382C111.364 14.6713 111.815 14.004 112.335 13.38C112.855 12.756 113.418 12.2187 114.025 11.768C114.978 11.0573 115.871 10.702 116.703 10.702C117.257 10.9967 117.803 11.612 118.341 12.548C118.427 12.548 118.505 12.548 118.575 12.548C118.644 12.5307 118.722 12.522 118.809 12.522C119.727 12.522 120.187 13.3367 120.187 14.966C120.187 16.058 120.005 17.098 119.641 18.086C119.294 19.0567 118.8 19.9407 118.159 20.738C117.535 21.5353 116.781 22.2113 115.897 22.766C115.03 23.3033 114.077 23.6847 113.037 23.91ZM114.363 15.72C114.068 16.1187 113.791 16.552 113.531 17.02C113.271 17.488 113.045 17.9647 112.855 18.45C112.664 18.918 112.517 19.3773 112.413 19.828C112.309 20.2613 112.257 20.6513 112.257 20.998C112.257 21.414 112.326 21.8127 112.465 22.194C112.603 22.5753 112.759 22.792 112.933 22.844C113.713 22.6707 114.423 22.35 115.065 21.882C115.723 21.3967 116.287 20.7987 116.755 20.088C117.24 19.3773 117.613 18.5713 117.873 17.67C118.15 16.7687 118.289 15.8067 118.289 14.784C118.289 14.3333 118.263 13.978 118.211 13.718C118.159 13.458 118.072 13.2327 117.951 13.042C117.188 13.2673 116.503 13.6313 115.897 14.134C115.307 14.6367 114.796 15.1653 114.363 15.72Z"/>
<path d="M128.517 22.428C128.188 22.1507 127.963 21.804 127.841 21.388C127.737 20.972 127.685 20.6167 127.685 20.322C127.685 19.958 127.729 19.646 127.815 19.386C127.746 19.386 127.59 19.5247 127.347 19.802C127.105 20.0793 126.836 20.4087 126.541 20.79C126.264 21.1713 125.987 21.544 125.709 21.908C125.432 22.272 125.224 22.5407 125.085 22.714C124.86 22.9567 124.643 23.1473 124.435 23.286C124.245 23.4247 124.089 23.5027 123.967 23.52C123.69 23.5027 123.395 23.442 123.083 23.338C122.789 23.2513 122.503 23.1213 122.225 22.948C121.965 22.7747 121.731 22.5667 121.523 22.324C121.333 22.0813 121.203 21.804 121.133 21.492C121.133 21.0067 121.142 20.608 121.159 20.296C121.194 19.984 121.255 19.646 121.341 19.282C121.497 18.6233 121.723 17.878 122.017 17.046C122.329 16.214 122.685 15.3993 123.083 14.602C123.482 13.7873 123.924 13.0333 124.409 12.34C124.912 11.6293 125.441 11.0747 125.995 10.676C126.151 10.676 126.333 10.6933 126.541 10.728C126.749 10.7453 126.957 10.7887 127.165 10.858C127.391 10.9273 127.599 11.014 127.789 11.118C127.997 11.2047 128.171 11.326 128.309 11.482C128.153 11.6553 127.755 12.236 127.113 13.224C126.489 14.212 125.787 15.6333 125.007 17.488C124.921 17.6787 124.817 17.956 124.695 18.32C124.574 18.684 124.453 19.0653 124.331 19.464C124.21 19.8627 124.106 20.2527 124.019 20.634C123.95 21.0153 123.915 21.3187 123.915 21.544C123.915 21.6827 123.933 21.7867 123.967 21.856C124.019 21.9253 124.063 21.9773 124.097 22.012C124.357 21.908 124.687 21.622 125.085 21.154C125.484 20.686 126.039 19.9667 126.749 18.996C126.923 18.7533 127.122 18.476 127.347 18.164C127.59 17.852 127.833 17.5227 128.075 17.176C128.318 16.812 128.543 16.4393 128.751 16.058C128.977 15.6767 129.159 15.2953 129.297 14.914C129.367 14.706 129.453 14.4633 129.557 14.186C129.679 13.8913 129.817 13.588 129.973 13.276C130.147 12.964 130.337 12.652 130.545 12.34C130.771 12.0107 131.031 11.7073 131.325 11.43C131.551 11.43 131.793 11.456 132.053 11.508C132.313 11.56 132.556 11.6293 132.781 11.716C133.024 11.7853 133.232 11.872 133.405 11.976C133.579 12.0627 133.709 12.158 133.795 12.262C133.483 13.0247 133.137 13.7787 132.755 14.524C132.374 15.2693 132.019 16.006 131.689 16.734C131.36 17.4447 131.083 18.1553 130.857 18.866C130.632 19.5767 130.519 20.27 130.519 20.946C130.519 21.31 130.545 21.6307 130.597 21.908C130.667 22.168 130.736 22.3933 130.805 22.584C130.875 22.7573 130.935 22.9047 130.987 23.026C131.057 23.1473 131.091 23.2513 131.091 23.338C131.091 23.3553 131.074 23.3813 131.039 23.416C131.022 23.4333 131.005 23.442 130.987 23.442C130.866 23.442 130.71 23.416 130.519 23.364C130.329 23.312 130.112 23.234 129.869 23.13C129.644 23.0433 129.41 22.9393 129.167 22.818C128.942 22.6967 128.725 22.5667 128.517 22.428Z"/>
<path d="M133.669 22.48C133.756 21.9773 133.903 21.3187 134.111 20.504C134.336 19.672 134.596 18.7967 134.891 17.878C135.186 16.942 135.498 16.006 135.827 15.07C136.156 14.134 136.477 13.2933 136.789 12.548C137.014 12.0107 137.214 11.5947 137.387 11.3C137.56 10.988 137.751 10.728 137.959 10.52C138.202 10.5547 138.453 10.6153 138.713 10.702C138.973 10.7887 139.224 10.8927 139.467 11.014C139.71 11.1353 139.926 11.2653 140.117 11.404C140.308 11.5253 140.455 11.6467 140.559 11.768C140.091 12.3227 139.675 12.9553 139.311 13.666C138.964 14.3767 138.609 15.2867 138.245 16.396C139.181 15.564 140.004 14.7667 140.715 14.004C141.443 13.2413 142.119 12.392 142.743 11.456C142.847 11.3693 143.029 11.326 143.289 11.326C143.532 11.326 143.766 11.3693 143.991 11.456C144.216 11.5253 144.372 11.6293 144.459 11.768C144.147 12.6 143.991 13.4233 143.991 14.238C143.991 15.0007 144.104 15.5727 144.329 15.954C144.312 16.058 144.19 16.2573 143.965 16.552C143.757 16.8467 143.523 17.124 143.263 17.384C142.795 17.1413 142.379 16.812 142.015 16.396C141.651 15.9627 141.382 15.4947 141.209 14.992C140.394 15.564 139.701 16.1273 139.129 16.682C138.557 17.2193 138.063 17.826 137.647 18.502C137.248 19.1607 136.902 19.9233 136.607 20.79C136.33 21.6567 136.061 22.688 135.801 23.884C135.645 23.8667 135.454 23.806 135.229 23.702C135.021 23.6153 134.804 23.5027 134.579 23.364C134.371 23.2253 134.18 23.078 134.007 22.922C133.834 22.766 133.721 22.6187 133.669 22.48Z"/>
<path d="M148.991 10.39C149.442 10.5287 149.867 10.8407 150.265 11.326C150.664 11.794 150.959 12.314 151.149 12.886C150.959 13.354 150.664 13.9173 150.265 14.576C149.867 15.2347 149.468 15.9107 149.069 16.604C148.671 17.28 148.307 17.93 147.977 18.554C147.665 19.1607 147.483 19.6633 147.431 20.062C147.709 19.7673 148.012 19.4293 148.341 19.048C148.688 18.6493 149.017 18.2593 149.329 17.878C149.659 17.4793 149.962 17.124 150.239 16.812C150.517 16.4827 150.733 16.24 150.889 16.084C151.219 15.7373 151.609 15.3387 152.059 14.888C152.51 14.42 152.978 13.9867 153.463 13.588C153.966 13.172 154.469 12.8253 154.971 12.548C155.474 12.2533 155.933 12.106 156.349 12.106C156.8 12.106 157.173 12.262 157.467 12.574C157.779 12.8687 158.022 13.1807 158.195 13.51C158.195 13.5447 158.126 13.5967 157.987 13.666C157.866 13.718 157.684 13.8827 157.441 14.16C157.199 14.472 156.921 14.9053 156.609 15.46C156.315 15.9973 156.02 16.5867 155.725 17.228C155.448 17.852 155.214 18.4933 155.023 19.152C154.833 19.8107 154.737 20.4087 154.737 20.946C154.737 21.3793 154.789 21.6567 154.893 21.778C155.015 21.8993 155.179 21.96 155.387 21.96C155.578 21.96 155.777 21.9167 155.985 21.83C156.193 21.7433 156.358 21.7 156.479 21.7C156.549 21.7347 156.601 21.8127 156.635 21.934C156.687 22.038 156.713 22.1333 156.713 22.22C156.575 22.3413 156.41 22.4627 156.219 22.584C156.029 22.7053 155.829 22.818 155.621 22.922C155.413 23.026 155.205 23.1127 154.997 23.182C154.807 23.2513 154.633 23.286 154.477 23.286C153.975 23.286 153.559 23.208 153.229 23.052C152.917 22.9133 152.666 22.7227 152.475 22.48C152.302 22.2373 152.181 21.9513 152.111 21.622C152.042 21.2753 152.007 20.9113 152.007 20.53C152.007 20.322 152.025 20.088 152.059 19.828C152.094 19.568 152.163 19.2647 152.267 18.918C152.371 18.554 152.519 18.1293 152.709 17.644C152.9 17.1413 153.143 16.5433 153.437 15.85C153.403 15.85 153.169 15.9713 152.735 16.214C152.302 16.4567 151.834 16.8293 151.331 17.332C150.517 18.112 149.78 18.8833 149.121 19.646C148.48 20.4087 147.821 21.258 147.145 22.194C146.764 22.7313 146.426 23.182 146.131 23.546C145.854 23.9273 145.611 24.1787 145.403 24.3C145.039 24.092 144.771 23.7973 144.597 23.416C144.424 23.052 144.294 22.6707 144.207 22.272C144.207 21.9427 144.251 21.5267 144.337 21.024C144.441 20.5213 144.571 19.9667 144.727 19.36C144.901 18.736 145.109 18.086 145.351 17.41C145.594 16.734 145.863 16.058 146.157 15.382C146.816 13.8567 147.414 12.6607 147.951 11.794C148.506 10.9273 148.853 10.4593 148.991 10.39Z"/>
<path d="M167.79 12.496C167.964 12.496 168.163 12.5307 168.388 12.6C168.631 12.652 168.848 12.73 169.038 12.834C169.229 12.9207 169.385 13.016 169.506 13.12C169.645 13.224 169.714 13.3193 169.714 13.406C169.368 14.134 169.047 14.8707 168.752 15.616C168.458 16.344 168.206 17.046 167.998 17.722C167.79 18.398 167.626 19.0307 167.504 19.62C167.4 20.2093 167.348 20.7207 167.348 21.154C167.348 21.6393 167.4 22.0467 167.504 22.376C167.608 22.688 167.782 22.9133 168.024 23.052C167.816 23.1907 167.548 23.3033 167.218 23.39C166.889 23.4767 166.594 23.52 166.334 23.52C165.398 23.52 164.93 22.8787 164.93 21.596C164.93 20.608 165.26 19.256 165.918 17.54C165.572 18.3373 165.173 19.0913 164.722 19.802C164.272 20.4953 163.812 21.1107 163.344 21.648C162.876 22.1853 162.4 22.6273 161.914 22.974C161.446 23.3033 161.013 23.5027 160.614 23.572C159.973 23.5373 159.453 23.234 159.054 22.662C158.656 22.0727 158.456 21.3273 158.456 20.426C158.456 19.4553 158.664 18.4327 159.08 17.358C159.496 16.2833 160.025 15.2867 160.666 14.368C161.325 13.4493 162.036 12.6867 162.798 12.08C163.561 11.456 164.298 11.1267 165.008 11.092C165.182 11.144 165.372 11.248 165.58 11.404C165.806 11.56 166.014 11.742 166.204 11.95C166.412 12.158 166.586 12.3747 166.724 12.6C166.863 12.808 166.941 12.99 166.958 13.146C166.265 13.25 165.546 13.588 164.8 14.16C164.072 14.732 163.405 15.4253 162.798 16.24C162.209 17.0373 161.724 17.8953 161.342 18.814C160.961 19.7327 160.77 20.5907 160.77 21.388C160.77 21.7173 160.892 21.9253 161.134 22.012C161.637 21.908 162.218 21.4833 162.876 20.738C163.535 19.9753 164.332 18.8053 165.268 17.228C165.442 16.916 165.632 16.5693 165.84 16.188C166.066 15.8067 166.291 15.408 166.516 14.992C166.742 14.576 166.958 14.16 167.166 13.744C167.392 13.3107 167.6 12.8947 167.79 12.496Z"/>
<path d="M171.007 21.336C171.007 20.5733 171.189 19.5073 171.553 18.138C171.917 16.7513 172.429 15.1393 173.087 13.302C174.162 10.3727 175.167 7.93735 176.103 5.99601C177.056 4.03735 177.984 2.51201 178.885 1.42001C179.093 1.45468 179.345 1.54135 179.639 1.68001C179.951 1.81868 180.254 1.97468 180.549 2.14801C180.844 2.30401 181.104 2.46868 181.329 2.64201C181.572 2.81535 181.728 2.95401 181.797 3.05801C180.445 4.65268 179.258 6.36868 178.235 8.20601C177.213 10.0433 176.277 12.1493 175.427 14.524C174.699 16.5693 174.145 18.4153 173.763 20.062C173.382 21.6913 173.191 23.052 173.191 24.144C173.191 24.4387 173.191 24.6207 173.191 24.69C173.191 24.7593 173.2 24.8287 173.217 24.898C172.974 24.8633 172.767 24.8027 172.593 24.716C172.42 24.6293 172.307 24.5253 172.255 24.404C172.221 24.3173 172.125 24.1873 171.969 24.014C171.813 23.858 171.675 23.7367 171.553 23.65C171.397 23.546 171.267 23.2773 171.163 22.844C171.059 22.3933 171.007 21.8907 171.007 21.336Z"/>
</mask>
<path d="M18.9545 8.98601C18.9545 9.93935 18.7118 10.8493 18.2265 11.716C17.7585 12.5827 17.1172 13.3453 16.3025 14.004C15.5052 14.6453 14.5605 15.1567 13.4685 15.538C12.3938 15.9193 11.2498 16.11 10.0365 16.11C9.60317 16.11 9.2565 16.058 8.9965 15.954C8.75384 15.8327 8.4765 15.6073 8.1645 15.278C7.29784 17.1673 6.58717 18.9093 6.0325 20.504C5.49517 22.0813 5.0705 23.6153 4.7585 25.106C4.09984 24.95 3.5625 24.6727 3.1465 24.274C2.7305 23.8927 2.34917 23.4073 2.0025 22.818C2.17584 22.4887 2.38384 22.0553 2.6265 21.518C2.86917 20.9807 3.16384 20.322 3.5105 19.542C3.85717 18.7447 4.25584 17.8 4.7065 16.708C5.1745 15.5987 5.7205 14.3073 6.3445 12.834C6.62184 12.158 6.8645 11.5687 7.0725 11.066C7.2805 10.5633 7.4625 10.0953 7.6185 9.66201C7.7745 9.21135 7.91317 8.76935 8.0345 8.33601C8.17317 7.90268 8.31184 7.42601 8.4505 6.90601C7.63584 7.16601 6.88184 7.46935 6.1885 7.81601C5.5125 8.16268 4.94917 8.52668 4.4985 8.90801C4.3425 8.80401 4.17784 8.64801 4.0045 8.44001C3.8485 8.23201 3.70117 8.00668 3.5625 7.76401C3.42384 7.50401 3.3025 7.24401 3.1985 6.98401C3.0945 6.72401 3.03384 6.49001 3.0165 6.28201C3.51917 5.93535 4.14317 5.61468 4.8885 5.32001C5.63384 5.02535 6.43117 4.77401 7.2805 4.56601C8.12984 4.34068 9.00517 4.16735 9.9065 4.04601C10.8252 3.92468 11.7005 3.86401 12.5325 3.86401C13.5205 3.86401 14.4132 3.99401 15.2105 4.25401C16.0078 4.49668 16.6838 4.84335 17.2385 5.29401C17.7932 5.74468 18.2178 6.28201 18.5125 6.90601C18.8072 7.53001 18.9545 8.22335 18.9545 8.98601ZM14.3265 5.86601C13.6678 5.86601 12.9918 5.91801 12.2985 6.02201L12.6105 6.49001C12.4372 6.71535 12.2205 7.05335 11.9605 7.50401C11.7005 7.95468 11.4145 8.50068 11.1025 9.14201C10.7905 9.76601 10.4438 10.468 10.0625 11.248C9.6985 12.028 9.3085 12.8513 8.8925 13.718C10.2445 13.718 11.4752 13.5967 12.5845 13.354C13.6938 13.094 14.6385 12.7473 15.4185 12.314C16.2158 11.8633 16.8312 11.3433 17.2645 10.754C17.7152 10.1647 17.9405 9.53201 17.9405 8.85601C17.9405 7.95468 17.6372 7.23535 17.0305 6.69801C16.4238 6.14335 15.5225 5.86601 14.3265 5.86601Z" fill="white"/>
<path d="M26.7025 12.236C26.6332 13.3107 26.4425 14.238 26.1305 15.018C25.8185 15.7807 25.3678 16.4567 24.7785 17.046C24.2065 17.618 23.5045 18.138 22.6725 18.606C21.8405 19.074 20.8698 19.5247 19.7605 19.958C19.7605 20.062 19.7518 20.1747 19.7345 20.296C19.7345 20.4 19.7345 20.5127 19.7345 20.634C19.7345 20.8593 19.7518 21.0933 19.7865 21.336C19.8212 21.5787 19.8818 21.804 19.9685 22.012C20.0552 22.22 20.1765 22.3933 20.3325 22.532C20.4885 22.6533 20.6878 22.714 20.9305 22.714C21.3985 22.714 21.8578 22.61 22.3085 22.402C22.7592 22.194 23.1838 21.9427 23.5825 21.648C23.9985 21.336 24.3798 21.0067 24.7265 20.66C25.0905 20.296 25.4112 19.9667 25.6885 19.672C25.8618 19.828 26.0092 19.9753 26.1305 20.114C25.3505 21.154 24.4925 22.0207 23.5565 22.714C22.6378 23.39 21.7625 23.8233 20.9305 24.014C19.7345 23.8753 18.7985 23.442 18.1225 22.714C17.4638 21.9687 17.1345 21.076 17.1345 20.036C17.1345 19.3253 17.2298 18.606 17.4205 17.878C17.6285 17.1327 17.9058 16.422 18.2525 15.746C18.6165 15.0527 19.0325 14.4027 19.5005 13.796C19.9858 13.1893 20.4972 12.6607 21.0345 12.21C21.5892 11.7593 22.1525 11.404 22.7245 11.144C23.3138 10.884 23.8945 10.754 24.4665 10.754C25.2638 10.858 26.0092 11.352 26.7025 12.236ZM24.9085 13.094C24.4405 13.1633 23.9552 13.354 23.4525 13.666C22.9498 13.978 22.4732 14.394 22.0225 14.914C21.5892 15.434 21.1905 16.0407 20.8265 16.734C20.4625 17.4273 20.1765 18.1727 19.9685 18.97C21.3552 18.2767 22.5078 17.4273 23.4265 16.422C24.3452 15.3993 24.8392 14.29 24.9085 13.094Z" fill="white"/>
<path d="M27.2822 22.48C27.3689 21.9773 27.5162 21.3187 27.7242 20.504C27.9496 19.672 28.2096 18.7967 28.5042 17.878C28.7989 16.942 29.1109 16.006 29.4402 15.07C29.7696 14.134 30.0902 13.2933 30.4022 12.548C30.6276 12.0107 30.8269 11.5947 31.0002 11.3C31.1736 10.988 31.3642 10.728 31.5722 10.52C31.8149 10.5547 32.0662 10.6153 32.3262 10.702C32.5862 10.7887 32.8376 10.8927 33.0802 11.014C33.3229 11.1353 33.5396 11.2653 33.7302 11.404C33.9209 11.5253 34.0682 11.6467 34.1722 11.768C33.7042 12.3227 33.2882 12.9553 32.9242 13.666C32.5776 14.3767 32.2222 15.2867 31.8582 16.396C32.7942 15.564 33.6176 14.7667 34.3282 14.004C35.0562 13.2413 35.7322 12.392 36.3562 11.456C36.4602 11.3693 36.6422 11.326 36.9022 11.326C37.1449 11.326 37.3789 11.3693 37.6042 11.456C37.8296 11.5253 37.9856 11.6293 38.0722 11.768C37.7602 12.6 37.6042 13.4233 37.6042 14.238C37.6042 15.0007 37.7169 15.5727 37.9422 15.954C37.9249 16.058 37.8036 16.2573 37.5782 16.552C37.3702 16.8467 37.1362 17.124 36.8762 17.384C36.4082 17.1413 35.9922 16.812 35.6282 16.396C35.2642 15.9627 34.9956 15.4947 34.8222 14.992C34.0076 15.564 33.3142 16.1273 32.7422 16.682C32.1702 17.2193 31.6762 17.826 31.2602 18.502C30.8616 19.1607 30.5149 19.9233 30.2202 20.79C29.9429 21.6567 29.6742 22.688 29.4142 23.884C29.2582 23.8667 29.0676 23.806 28.8422 23.702C28.6342 23.6153 28.4176 23.5027 28.1922 23.364C27.9842 23.2253 27.7936 23.078 27.6202 22.922C27.4469 22.766 27.3342 22.6187 27.2822 22.48Z" fill="white"/>
<path d="M46.9563 12.652C46.939 12.9813 46.8783 13.328 46.7743 13.692C46.6876 14.0387 46.575 14.3593 46.4363 14.654C46.2976 14.9313 46.1503 15.1653 45.9943 15.356C45.8383 15.5467 45.691 15.642 45.5523 15.642C45.3616 15.6247 45.249 15.4947 45.2143 15.252C45.2143 15.2 45.2316 15.122 45.2663 15.018C45.3183 14.8967 45.3703 14.7667 45.4223 14.628C45.4743 14.4893 45.5176 14.3507 45.5523 14.212C45.6043 14.0733 45.6303 13.952 45.6303 13.848C45.6303 13.6053 45.5696 13.406 45.4483 13.25C45.3443 13.0767 45.197 12.99 45.0063 12.99C44.313 12.99 43.7843 13.4233 43.4203 14.29C43.0563 15.1567 42.8743 16.4307 42.8743 18.112C42.8743 18.2853 42.883 18.3893 42.9003 18.424C43.2643 18.4067 43.585 18.398 43.8623 18.398C44.157 18.3807 44.443 18.372 44.7203 18.372C44.7376 18.4067 44.7463 18.476 44.7463 18.58C44.7463 18.736 44.7116 18.8487 44.6423 18.918C44.2436 19.0047 43.923 19.0827 43.6803 19.152C43.455 19.204 43.2816 19.256 43.1603 19.308C43.039 19.36 42.961 19.4207 42.9263 19.49C42.909 19.542 42.9003 19.62 42.9003 19.724C42.9003 19.8627 42.9003 20.0013 42.9003 20.14C42.9176 20.2787 42.9263 20.452 42.9263 20.66C42.9263 22.116 42.5276 23.286 41.7303 24.17C40.9503 25.054 39.8583 25.5653 38.4543 25.704C38.2116 25.6867 37.9603 25.6173 37.7003 25.496C37.4403 25.3747 37.189 25.2187 36.9463 25.028C36.721 24.8373 36.5216 24.6207 36.3483 24.378C36.175 24.1527 36.0536 23.9187 35.9843 23.676C35.9843 23.0173 36.123 22.3933 36.4003 21.804C36.6776 21.1973 37.0503 20.6687 37.5183 20.218C38.0036 19.75 38.567 19.3773 39.2083 19.1C39.867 18.8053 40.5776 18.632 41.3403 18.58C41.3403 18.1467 41.297 17.722 41.2103 17.306C41.1236 16.89 41.0283 16.4913 40.9243 16.11C40.8376 15.7113 40.751 15.33 40.6643 14.966C40.5776 14.5847 40.5343 14.212 40.5343 13.848C40.5343 13.38 40.6296 12.9207 40.8203 12.47C41.011 12.002 41.2623 11.5773 41.5743 11.196C41.8863 10.7973 42.2503 10.4593 42.6663 10.182C43.0823 9.90468 43.5156 9.71401 43.9663 9.61001C44.157 9.66201 44.4083 9.81801 44.7203 10.078C45.0496 10.3207 45.3703 10.598 45.6823 10.91C45.9943 11.222 46.2716 11.5427 46.5143 11.872C46.757 12.184 46.9043 12.444 46.9563 12.652ZM38.3763 24.508C38.7923 24.3347 39.1823 24.0833 39.5463 23.754C39.9276 23.4247 40.257 23.052 40.5343 22.636C40.8116 22.22 41.0283 21.778 41.1843 21.31C41.3576 20.842 41.4443 20.3827 41.4443 19.932C41.0976 19.984 40.7163 20.1487 40.3003 20.426C39.8843 20.686 39.4943 21.0067 39.1303 21.388C38.7663 21.752 38.463 22.1333 38.2203 22.532C37.9776 22.9307 37.8563 23.2773 37.8563 23.572C37.8563 23.9533 38.0296 24.2653 38.3763 24.508Z" fill="white"/>
<path d="M50.0426 23.91C49.0546 23.806 48.2659 23.3727 47.6766 22.61C47.0872 21.8473 46.7926 20.8767 46.7926 19.698C46.7926 19.0047 46.8966 18.2853 47.1046 17.54C47.3126 16.7947 47.6072 16.0753 47.9886 15.382C48.3699 14.6713 48.8206 14.004 49.3406 13.38C49.8606 12.756 50.4239 12.2187 51.0306 11.768C51.9839 11.0573 52.8766 10.702 53.7086 10.702C54.2632 10.9967 54.8092 11.612 55.3466 12.548C55.4332 12.548 55.5112 12.548 55.5806 12.548C55.6499 12.5307 55.7279 12.522 55.8146 12.522C56.7332 12.522 57.1926 13.3367 57.1926 14.966C57.1926 16.058 57.0106 17.098 56.6466 18.086C56.2999 19.0567 55.8059 19.9407 55.1646 20.738C54.5406 21.5353 53.7866 22.2113 52.9026 22.766C52.0359 23.3033 51.0826 23.6847 50.0426 23.91ZM51.3686 15.72C51.0739 16.1187 50.7966 16.552 50.5366 17.02C50.2766 17.488 50.0512 17.9647 49.8606 18.45C49.6699 18.918 49.5226 19.3773 49.4186 19.828C49.3146 20.2613 49.2626 20.6513 49.2626 20.998C49.2626 21.414 49.3319 21.8127 49.4706 22.194C49.6092 22.5753 49.7652 22.792 49.9386 22.844C50.7186 22.6707 51.4292 22.35 52.0706 21.882C52.7292 21.3967 53.2926 20.7987 53.7606 20.088C54.2459 19.3773 54.6186 18.5713 54.8786 17.67C55.1559 16.7687 55.2946 15.8067 55.2946 14.784C55.2946 14.3333 55.2686 13.978 55.2166 13.718C55.1646 13.458 55.0779 13.2327 54.9566 13.042C54.1939 13.2673 53.5092 13.6313 52.9026 14.134C52.3132 14.6367 51.8019 15.1653 51.3686 15.72Z" fill="white"/>
<path d="M62.6631 10.39C63.1138 10.5287 63.5385 10.8407 63.9371 11.326C64.3358 11.794 64.6305 12.314 64.8211 12.886C64.6305 13.354 64.3358 13.9173 63.9371 14.576C63.5385 15.2347 63.1398 15.9107 62.7411 16.604C62.3425 17.28 61.9785 17.93 61.6491 18.554C61.3371 19.1607 61.1551 19.6633 61.1031 20.062C61.3805 19.7673 61.6838 19.4293 62.0131 19.048C62.3598 18.6493 62.6891 18.2593 63.0011 17.878C63.3305 17.4793 63.6338 17.124 63.9111 16.812C64.1885 16.4827 64.4051 16.24 64.5611 16.084C64.8905 15.7373 65.2805 15.3387 65.7311 14.888C66.1818 14.42 66.6498 13.9867 67.1351 13.588C67.6378 13.172 68.1405 12.8253 68.6431 12.548C69.1458 12.2533 69.6051 12.106 70.0211 12.106C70.4718 12.106 70.8445 12.262 71.1391 12.574C71.4511 12.8687 71.6938 13.1807 71.8671 13.51C71.8671 13.5447 71.7978 13.5967 71.6591 13.666C71.5378 13.718 71.3558 13.8827 71.1131 14.16C70.8705 14.472 70.5932 14.9053 70.2812 15.46C69.9865 15.9973 69.6918 16.5867 69.3971 17.228C69.1198 17.852 68.8858 18.4933 68.6951 19.152C68.5045 19.8107 68.4091 20.4087 68.4091 20.946C68.4091 21.3793 68.4611 21.6567 68.5651 21.778C68.6865 21.8993 68.8511 21.96 69.0591 21.96C69.2498 21.96 69.4491 21.9167 69.6571 21.83C69.8651 21.7433 70.0298 21.7 70.1511 21.7C70.2205 21.7347 70.2725 21.8127 70.3071 21.934C70.3591 22.038 70.3851 22.1333 70.3851 22.22C70.2465 22.3413 70.0818 22.4627 69.8911 22.584C69.7005 22.7053 69.5011 22.818 69.2931 22.922C69.0851 23.026 68.8771 23.1127 68.6691 23.182C68.4785 23.2513 68.3051 23.286 68.1491 23.286C67.6465 23.286 67.2305 23.208 66.9011 23.052C66.5891 22.9133 66.3378 22.7227 66.1471 22.48C65.9738 22.2373 65.8525 21.9513 65.7831 21.622C65.7138 21.2753 65.6791 20.9113 65.6791 20.53C65.6791 20.322 65.6965 20.088 65.7311 19.828C65.7658 19.568 65.8351 19.2647 65.9391 18.918C66.0431 18.554 66.1905 18.1293 66.3811 17.644C66.5718 17.1413 66.8145 16.5433 67.1091 15.85C67.0745 15.85 66.8405 15.9713 66.4072 16.214C65.9738 16.4567 65.5058 16.8293 65.0031 17.332C64.1885 18.112 63.4518 18.8833 62.7931 19.646C62.1518 20.4087 61.4931 21.258 60.8171 22.194C60.4358 22.7313 60.0978 23.182 59.8031 23.546C59.5258 23.9273 59.2831 24.1787 59.0751 24.3C58.7111 24.092 58.4425 23.7973 58.2691 23.416C58.0958 23.052 57.9658 22.6707 57.8791 22.272C57.8791 21.9427 57.9225 21.5267 58.0091 21.024C58.1131 20.5213 58.2431 19.9667 58.3991 19.36C58.5725 18.736 58.7805 18.086 59.0231 17.41C59.2658 16.734 59.5345 16.058 59.8291 15.382C60.4878 13.8567 61.0858 12.6607 61.6231 11.794C62.1778 10.9273 62.5245 10.4593 62.6631 10.39Z" fill="white"/>
<path d="M81.4622 12.496C81.6355 12.496 81.8348 12.5307 82.0602 12.6C82.3028 12.652 82.5195 12.73 82.7102 12.834C82.9008 12.9207 83.0568 13.016 83.1782 13.12C83.3168 13.224 83.3862 13.3193 83.3862 13.406C83.0395 14.134 82.7188 14.8707 82.4242 15.616C82.1295 16.344 81.8782 17.046 81.6702 17.722C81.4622 18.398 81.2975 19.0307 81.1762 19.62C81.0722 20.2093 81.0202 20.7207 81.0202 21.154C81.0202 21.6393 81.0722 22.0467 81.1762 22.376C81.2802 22.688 81.4535 22.9133 81.6962 23.052C81.4882 23.1907 81.2195 23.3033 80.8902 23.39C80.5608 23.4767 80.2662 23.52 80.0062 23.52C79.0702 23.52 78.6022 22.8787 78.6022 21.596C78.6022 20.608 78.9315 19.256 79.5902 17.54C79.2435 18.3373 78.8448 19.0913 78.3942 19.802C77.9435 20.4953 77.4842 21.1107 77.0162 21.648C76.5482 22.1853 76.0715 22.6273 75.5862 22.974C75.1182 23.3033 74.6848 23.5027 74.2862 23.572C73.6448 23.5373 73.1248 23.234 72.7262 22.662C72.3275 22.0727 72.1282 21.3273 72.1282 20.426C72.1282 19.4553 72.3362 18.4327 72.7522 17.358C73.1682 16.2833 73.6968 15.2867 74.3382 14.368C74.9968 13.4493 75.7075 12.6867 76.4702 12.08C77.2328 11.456 77.9695 11.1267 78.6802 11.092C78.8535 11.144 79.0442 11.248 79.2522 11.404C79.4775 11.56 79.6855 11.742 79.8762 11.95C80.0842 12.158 80.2575 12.3747 80.3962 12.6C80.5348 12.808 80.6128 12.99 80.6302 13.146C79.9368 13.25 79.2175 13.588 78.4722 14.16C77.7442 14.732 77.0768 15.4253 76.4702 16.24C75.8808 17.0373 75.3955 17.8953 75.0142 18.814C74.6328 19.7327 74.4422 20.5907 74.4422 21.388C74.4422 21.7173 74.5635 21.9253 74.8062 22.012C75.3088 21.908 75.8895 21.4833 76.5482 20.738C77.2068 19.9753 78.0042 18.8053 78.9402 17.228C79.1135 16.916 79.3042 16.5693 79.5122 16.188C79.7375 15.8067 79.9628 15.408 80.1882 14.992C80.4135 14.576 80.6302 14.16 80.8382 13.744C81.0635 13.3107 81.2715 12.8947 81.4622 12.496Z" fill="white"/>
<path d="M84.6791 21.336C84.6791 20.5733 84.8611 19.5073 85.2251 18.138C85.5891 16.7513 86.1004 15.1393 86.7591 13.302C87.8337 10.3727 88.8391 7.93735 89.7751 5.99601C90.7284 4.03735 91.6557 2.51201 92.5571 1.42001C92.7651 1.45468 93.0164 1.54135 93.3111 1.68001C93.6231 1.81868 93.9264 1.97468 94.2211 2.14801C94.5157 2.30401 94.7757 2.46868 95.0011 2.64201C95.2437 2.81535 95.3997 2.95401 95.4691 3.05801C94.1171 4.65268 92.9297 6.36868 91.9071 8.20601C90.8844 10.0433 89.9484 12.1493 89.0991 14.524C88.3711 16.5693 87.8164 18.4153 87.4351 20.062C87.0537 21.6913 86.8631 23.052 86.8631 24.144C86.8631 24.4387 86.8631 24.6207 86.8631 24.69C86.8631 24.7593 86.8717 24.8287 86.8891 24.898C86.6464 24.8633 86.4384 24.8027 86.2651 24.716C86.0917 24.6293 85.9791 24.5253 85.9271 24.404C85.8924 24.3173 85.7971 24.1873 85.6411 24.014C85.4851 23.858 85.3464 23.7367 85.2251 23.65C85.0691 23.546 84.9391 23.2773 84.8351 22.844C84.7311 22.3933 84.6791 21.8907 84.6791 21.336Z" fill="white"/>
<path d="M106.899 3.78601C107.558 3.78601 108.242 3.90735 108.953 4.15001C109.664 4.39268 110.288 4.70468 110.825 5.08601C110.652 5.97001 110.487 6.76735 110.331 7.47801C110.192 8.18868 110.062 8.83868 109.941 9.42801C109.82 10 109.698 10.5287 109.577 11.014C109.473 11.482 109.369 11.924 109.265 12.34C108.849 13.9 108.416 15.3127 107.965 16.578C107.532 17.826 107.064 18.9527 106.561 19.958C106.076 20.9633 105.556 21.856 105.001 22.636C104.464 23.416 103.883 24.1007 103.259 24.69C102.652 25.262 102.046 25.73 101.439 26.094C100.832 26.458 100.269 26.692 99.7489 26.796C99.0556 26.796 98.4142 26.718 97.8249 26.562C97.2356 26.406 96.7242 26.1893 96.2909 25.912C95.8749 25.652 95.5456 25.3313 95.3029 24.95C95.0776 24.586 94.9649 24.1787 94.9649 23.728C94.9649 23.2427 95.0862 22.636 95.3289 21.908C95.5716 21.1627 95.9442 20.2873 96.4469 19.282C96.6549 19.2993 96.8976 19.3513 97.1749 19.438C97.4522 19.5247 97.7296 19.6287 98.0069 19.75C98.2842 19.8713 98.5356 20.01 98.7609 20.166C98.9862 20.3047 99.1509 20.4433 99.2549 20.582C98.7002 21.154 98.2496 21.7867 97.9029 22.48C97.5562 23.156 97.3829 23.7453 97.3829 24.248C97.3829 24.5427 97.4349 24.8027 97.5389 25.028C97.6602 25.2707 97.8596 25.4873 98.1369 25.678C99.1942 25.2793 100.226 24.534 101.231 23.442C102.236 22.3673 103.129 21.024 103.909 19.412C104.377 18.4587 104.802 17.3667 105.183 16.136C105.564 14.9053 105.885 13.6747 106.145 12.444C106.422 11.196 106.63 10.0087 106.769 8.88201C106.925 7.73801 107.003 6.77601 107.003 5.99601C107.003 5.87468 106.994 5.71001 106.977 5.50201C106.977 5.27668 106.968 5.05135 106.951 4.82601C106.951 4.58335 106.942 4.36668 106.925 4.17601C106.908 3.98535 106.899 3.85535 106.899 3.78601Z" fill="white"/>
<path d="M113.037 23.91C112.049 23.806 111.26 23.3727 110.671 22.61C110.081 21.8473 109.787 20.8767 109.787 19.698C109.787 19.0047 109.891 18.2853 110.099 17.54C110.307 16.7947 110.601 16.0753 110.983 15.382C111.364 14.6713 111.815 14.004 112.335 13.38C112.855 12.756 113.418 12.2187 114.025 11.768C114.978 11.0573 115.871 10.702 116.703 10.702C117.257 10.9967 117.803 11.612 118.341 12.548C118.427 12.548 118.505 12.548 118.575 12.548C118.644 12.5307 118.722 12.522 118.809 12.522C119.727 12.522 120.187 13.3367 120.187 14.966C120.187 16.058 120.005 17.098 119.641 18.086C119.294 19.0567 118.8 19.9407 118.159 20.738C117.535 21.5353 116.781 22.2113 115.897 22.766C115.03 23.3033 114.077 23.6847 113.037 23.91ZM114.363 15.72C114.068 16.1187 113.791 16.552 113.531 17.02C113.271 17.488 113.045 17.9647 112.855 18.45C112.664 18.918 112.517 19.3773 112.413 19.828C112.309 20.2613 112.257 20.6513 112.257 20.998C112.257 21.414 112.326 21.8127 112.465 22.194C112.603 22.5753 112.759 22.792 112.933 22.844C113.713 22.6707 114.423 22.35 115.065 21.882C115.723 21.3967 116.287 20.7987 116.755 20.088C117.24 19.3773 117.613 18.5713 117.873 17.67C118.15 16.7687 118.289 15.8067 118.289 14.784C118.289 14.3333 118.263 13.978 118.211 13.718C118.159 13.458 118.072 13.2327 117.951 13.042C117.188 13.2673 116.503 13.6313 115.897 14.134C115.307 14.6367 114.796 15.1653 114.363 15.72Z" fill="white"/>
<path d="M128.517 22.428C128.188 22.1507 127.963 21.804 127.841 21.388C127.737 20.972 127.685 20.6167 127.685 20.322C127.685 19.958 127.729 19.646 127.815 19.386C127.746 19.386 127.59 19.5247 127.347 19.802C127.105 20.0793 126.836 20.4087 126.541 20.79C126.264 21.1713 125.987 21.544 125.709 21.908C125.432 22.272 125.224 22.5407 125.085 22.714C124.86 22.9567 124.643 23.1473 124.435 23.286C124.245 23.4247 124.089 23.5027 123.967 23.52C123.69 23.5027 123.395 23.442 123.083 23.338C122.789 23.2513 122.503 23.1213 122.225 22.948C121.965 22.7747 121.731 22.5667 121.523 22.324C121.333 22.0813 121.203 21.804 121.133 21.492C121.133 21.0067 121.142 20.608 121.159 20.296C121.194 19.984 121.255 19.646 121.341 19.282C121.497 18.6233 121.723 17.878 122.017 17.046C122.329 16.214 122.685 15.3993 123.083 14.602C123.482 13.7873 123.924 13.0333 124.409 12.34C124.912 11.6293 125.441 11.0747 125.995 10.676C126.151 10.676 126.333 10.6933 126.541 10.728C126.749 10.7453 126.957 10.7887 127.165 10.858C127.391 10.9273 127.599 11.014 127.789 11.118C127.997 11.2047 128.171 11.326 128.309 11.482C128.153 11.6553 127.755 12.236 127.113 13.224C126.489 14.212 125.787 15.6333 125.007 17.488C124.921 17.6787 124.817 17.956 124.695 18.32C124.574 18.684 124.453 19.0653 124.331 19.464C124.21 19.8627 124.106 20.2527 124.019 20.634C123.95 21.0153 123.915 21.3187 123.915 21.544C123.915 21.6827 123.933 21.7867 123.967 21.856C124.019 21.9253 124.063 21.9773 124.097 22.012C124.357 21.908 124.687 21.622 125.085 21.154C125.484 20.686 126.039 19.9667 126.749 18.996C126.923 18.7533 127.122 18.476 127.347 18.164C127.59 17.852 127.833 17.5227 128.075 17.176C128.318 16.812 128.543 16.4393 128.751 16.058C128.977 15.6767 129.159 15.2953 129.297 14.914C129.367 14.706 129.453 14.4633 129.557 14.186C129.679 13.8913 129.817 13.588 129.973 13.276C130.147 12.964 130.337 12.652 130.545 12.34C130.771 12.0107 131.031 11.7073 131.325 11.43C131.551 11.43 131.793 11.456 132.053 11.508C132.313 11.56 132.556 11.6293 132.781 11.716C133.024 11.7853 133.232 11.872 133.405 11.976C133.579 12.0627 133.709 12.158 133.795 12.262C133.483 13.0247 133.137 13.7787 132.755 14.524C132.374 15.2693 132.019 16.006 131.689 16.734C131.36 17.4447 131.083 18.1553 130.857 18.866C130.632 19.5767 130.519 20.27 130.519 20.946C130.519 21.31 130.545 21.6307 130.597 21.908C130.667 22.168 130.736 22.3933 130.805 22.584C130.875 22.7573 130.935 22.9047 130.987 23.026C131.057 23.1473 131.091 23.2513 131.091 23.338C131.091 23.3553 131.074 23.3813 131.039 23.416C131.022 23.4333 131.005 23.442 130.987 23.442C130.866 23.442 130.71 23.416 130.519 23.364C130.329 23.312 130.112 23.234 129.869 23.13C129.644 23.0433 129.41 22.9393 129.167 22.818C128.942 22.6967 128.725 22.5667 128.517 22.428Z" fill="white"/>
<path d="M133.669 22.48C133.756 21.9773 133.903 21.3187 134.111 20.504C134.336 19.672 134.596 18.7967 134.891 17.878C135.186 16.942 135.498 16.006 135.827 15.07C136.156 14.134 136.477 13.2933 136.789 12.548C137.014 12.0107 137.214 11.5947 137.387 11.3C137.56 10.988 137.751 10.728 137.959 10.52C138.202 10.5547 138.453 10.6153 138.713 10.702C138.973 10.7887 139.224 10.8927 139.467 11.014C139.71 11.1353 139.926 11.2653 140.117 11.404C140.308 11.5253 140.455 11.6467 140.559 11.768C140.091 12.3227 139.675 12.9553 139.311 13.666C138.964 14.3767 138.609 15.2867 138.245 16.396C139.181 15.564 140.004 14.7667 140.715 14.004C141.443 13.2413 142.119 12.392 142.743 11.456C142.847 11.3693 143.029 11.326 143.289 11.326C143.532 11.326 143.766 11.3693 143.991 11.456C144.216 11.5253 144.372 11.6293 144.459 11.768C144.147 12.6 143.991 13.4233 143.991 14.238C143.991 15.0007 144.104 15.5727 144.329 15.954C144.312 16.058 144.19 16.2573 143.965 16.552C143.757 16.8467 143.523 17.124 143.263 17.384C142.795 17.1413 142.379 16.812 142.015 16.396C141.651 15.9627 141.382 15.4947 141.209 14.992C140.394 15.564 139.701 16.1273 139.129 16.682C138.557 17.2193 138.063 17.826 137.647 18.502C137.248 19.1607 136.902 19.9233 136.607 20.79C136.33 21.6567 136.061 22.688 135.801 23.884C135.645 23.8667 135.454 23.806 135.229 23.702C135.021 23.6153 134.804 23.5027 134.579 23.364C134.371 23.2253 134.18 23.078 134.007 22.922C133.834 22.766 133.721 22.6187 133.669 22.48Z" fill="white"/>
<path d="M148.991 10.39C149.442 10.5287 149.867 10.8407 150.265 11.326C150.664 11.794 150.959 12.314 151.149 12.886C150.959 13.354 150.664 13.9173 150.265 14.576C149.867 15.2347 149.468 15.9107 149.069 16.604C148.671 17.28 148.307 17.93 147.977 18.554C147.665 19.1607 147.483 19.6633 147.431 20.062C147.709 19.7673 148.012 19.4293 148.341 19.048C148.688 18.6493 149.017 18.2593 149.329 17.878C149.659 17.4793 149.962 17.124 150.239 16.812C150.517 16.4827 150.733 16.24 150.889 16.084C151.219 15.7373 151.609 15.3387 152.059 14.888C152.51 14.42 152.978 13.9867 153.463 13.588C153.966 13.172 154.469 12.8253 154.971 12.548C155.474 12.2533 155.933 12.106 156.349 12.106C156.8 12.106 157.173 12.262 157.467 12.574C157.779 12.8687 158.022 13.1807 158.195 13.51C158.195 13.5447 158.126 13.5967 157.987 13.666C157.866 13.718 157.684 13.8827 157.441 14.16C157.199 14.472 156.921 14.9053 156.609 15.46C156.315 15.9973 156.02 16.5867 155.725 17.228C155.448 17.852 155.214 18.4933 155.023 19.152C154.833 19.8107 154.737 20.4087 154.737 20.946C154.737 21.3793 154.789 21.6567 154.893 21.778C155.015 21.8993 155.179 21.96 155.387 21.96C155.578 21.96 155.777 21.9167 155.985 21.83C156.193 21.7433 156.358 21.7 156.479 21.7C156.549 21.7347 156.601 21.8127 156.635 21.934C156.687 22.038 156.713 22.1333 156.713 22.22C156.575 22.3413 156.41 22.4627 156.219 22.584C156.029 22.7053 155.829 22.818 155.621 22.922C155.413 23.026 155.205 23.1127 154.997 23.182C154.807 23.2513 154.633 23.286 154.477 23.286C153.975 23.286 153.559 23.208 153.229 23.052C152.917 22.9133 152.666 22.7227 152.475 22.48C152.302 22.2373 152.181 21.9513 152.111 21.622C152.042 21.2753 152.007 20.9113 152.007 20.53C152.007 20.322 152.025 20.088 152.059 19.828C152.094 19.568 152.163 19.2647 152.267 18.918C152.371 18.554 152.519 18.1293 152.709 17.644C152.9 17.1413 153.143 16.5433 153.437 15.85C153.403 15.85 153.169 15.9713 152.735 16.214C152.302 16.4567 151.834 16.8293 151.331 17.332C150.517 18.112 149.78 18.8833 149.121 19.646C148.48 20.4087 147.821 21.258 147.145 22.194C146.764 22.7313 146.426 23.182 146.131 23.546C145.854 23.9273 145.611 24.1787 145.403 24.3C145.039 24.092 144.771 23.7973 144.597 23.416C144.424 23.052 144.294 22.6707 144.207 22.272C144.207 21.9427 144.251 21.5267 144.337 21.024C144.441 20.5213 144.571 19.9667 144.727 19.36C144.901 18.736 145.109 18.086 145.351 17.41C145.594 16.734 145.863 16.058 146.157 15.382C146.816 13.8567 147.414 12.6607 147.951 11.794C148.506 10.9273 148.853 10.4593 148.991 10.39Z" fill="white"/>
<path d="M167.79 12.496C167.964 12.496 168.163 12.5307 168.388 12.6C168.631 12.652 168.848 12.73 169.038 12.834C169.229 12.9207 169.385 13.016 169.506 13.12C169.645 13.224 169.714 13.3193 169.714 13.406C169.368 14.134 169.047 14.8707 168.752 15.616C168.458 16.344 168.206 17.046 167.998 17.722C167.79 18.398 167.626 19.0307 167.504 19.62C167.4 20.2093 167.348 20.7207 167.348 21.154C167.348 21.6393 167.4 22.0467 167.504 22.376C167.608 22.688 167.782 22.9133 168.024 23.052C167.816 23.1907 167.548 23.3033 167.218 23.39C166.889 23.4767 166.594 23.52 166.334 23.52C165.398 23.52 164.93 22.8787 164.93 21.596C164.93 20.608 165.26 19.256 165.918 17.54C165.572 18.3373 165.173 19.0913 164.722 19.802C164.272 20.4953 163.812 21.1107 163.344 21.648C162.876 22.1853 162.4 22.6273 161.914 22.974C161.446 23.3033 161.013 23.5027 160.614 23.572C159.973 23.5373 159.453 23.234 159.054 22.662C158.656 22.0727 158.456 21.3273 158.456 20.426C158.456 19.4553 158.664 18.4327 159.08 17.358C159.496 16.2833 160.025 15.2867 160.666 14.368C161.325 13.4493 162.036 12.6867 162.798 12.08C163.561 11.456 164.298 11.1267 165.008 11.092C165.182 11.144 165.372 11.248 165.58 11.404C165.806 11.56 166.014 11.742 166.204 11.95C166.412 12.158 166.586 12.3747 166.724 12.6C166.863 12.808 166.941 12.99 166.958 13.146C166.265 13.25 165.546 13.588 164.8 14.16C164.072 14.732 163.405 15.4253 162.798 16.24C162.209 17.0373 161.724 17.8953 161.342 18.814C160.961 19.7327 160.77 20.5907 160.77 21.388C160.77 21.7173 160.892 21.9253 161.134 22.012C161.637 21.908 162.218 21.4833 162.876 20.738C163.535 19.9753 164.332 18.8053 165.268 17.228C165.442 16.916 165.632 16.5693 165.84 16.188C166.066 15.8067 166.291 15.408 166.516 14.992C166.742 14.576 166.958 14.16 167.166 13.744C167.392 13.3107 167.6 12.8947 167.79 12.496Z" fill="white"/>
<path d="M171.007 21.336C171.007 20.5733 171.189 19.5073 171.553 18.138C171.917 16.7513 172.429 15.1393 173.087 13.302C174.162 10.3727 175.167 7.93735 176.103 5.99601C177.056 4.03735 177.984 2.51201 178.885 1.42001C179.093 1.45468 179.345 1.54135 179.639 1.68001C179.951 1.81868 180.254 1.97468 180.549 2.14801C180.844 2.30401 181.104 2.46868 181.329 2.64201C181.572 2.81535 181.728 2.95401 181.797 3.05801C180.445 4.65268 179.258 6.36868 178.235 8.20601C177.213 10.0433 176.277 12.1493 175.427 14.524C174.699 16.5693 174.145 18.4153 173.763 20.062C173.382 21.6913 173.191 23.052 173.191 24.144C173.191 24.4387 173.191 24.6207 173.191 24.69C173.191 24.7593 173.2 24.8287 173.217 24.898C172.974 24.8633 172.767 24.8027 172.593 24.716C172.42 24.6293 172.307 24.5253 172.255 24.404C172.221 24.3173 172.125 24.1873 171.969 24.014C171.813 23.858 171.675 23.7367 171.553 23.65C171.397 23.546 171.267 23.2773 171.163 22.844C171.059 22.3933 171.007 21.8907 171.007 21.336Z" fill="white"/>
<path d="M18.9545 8.98601C18.9545 9.93935 18.7118 10.8493 18.2265 11.716C17.7585 12.5827 17.1172 13.3453 16.3025 14.004C15.5052 14.6453 14.5605 15.1567 13.4685 15.538C12.3938 15.9193 11.2498 16.11 10.0365 16.11C9.60317 16.11 9.2565 16.058 8.9965 15.954C8.75384 15.8327 8.4765 15.6073 8.1645 15.278C7.29784 17.1673 6.58717 18.9093 6.0325 20.504C5.49517 22.0813 5.0705 23.6153 4.7585 25.106C4.09984 24.95 3.5625 24.6727 3.1465 24.274C2.7305 23.8927 2.34917 23.4073 2.0025 22.818C2.17584 22.4887 2.38384 22.0553 2.6265 21.518C2.86917 20.9807 3.16384 20.322 3.5105 19.542C3.85717 18.7447 4.25584 17.8 4.7065 16.708C5.1745 15.5987 5.7205 14.3073 6.3445 12.834C6.62184 12.158 6.8645 11.5687 7.0725 11.066C7.2805 10.5633 7.4625 10.0953 7.6185 9.66201C7.7745 9.21135 7.91317 8.76935 8.0345 8.33601C8.17317 7.90268 8.31184 7.42601 8.4505 6.90601C7.63584 7.16601 6.88184 7.46935 6.1885 7.81601C5.5125 8.16268 4.94917 8.52668 4.4985 8.90801C4.3425 8.80401 4.17784 8.64801 4.0045 8.44001C3.8485 8.23201 3.70117 8.00668 3.5625 7.76401C3.42384 7.50401 3.3025 7.24401 3.1985 6.98401C3.0945 6.72401 3.03384 6.49001 3.0165 6.28201C3.51917 5.93535 4.14317 5.61468 4.8885 5.32001C5.63384 5.02535 6.43117 4.77401 7.2805 4.56601C8.12984 4.34068 9.00517 4.16735 9.9065 4.04601C10.8252 3.92468 11.7005 3.86401 12.5325 3.86401C13.5205 3.86401 14.4132 3.99401 15.2105 4.25401C16.0078 4.49668 16.6838 4.84335 17.2385 5.29401C17.7932 5.74468 18.2178 6.28201 18.5125 6.90601C18.8072 7.53001 18.9545 8.22335 18.9545 8.98601ZM14.3265 5.86601C13.6678 5.86601 12.9918 5.91801 12.2985 6.02201L12.6105 6.49001C12.4372 6.71535 12.2205 7.05335 11.9605 7.50401C11.7005 7.95468 11.4145 8.50068 11.1025 9.14201C10.7905 9.76601 10.4438 10.468 10.0625 11.248C9.6985 12.028 9.3085 12.8513 8.8925 13.718C10.2445 13.718 11.4752 13.5967 12.5845 13.354C13.6938 13.094 14.6385 12.7473 15.4185 12.314C16.2158 11.8633 16.8312 11.3433 17.2645 10.754C17.7152 10.1647 17.9405 9.53201 17.9405 8.85601C17.9405 7.95468 17.6372 7.23535 17.0305 6.69801C16.4238 6.14335 15.5225 5.86601 14.3265 5.86601Z" stroke="black" stroke-width="2" mask="url(#path-1-outside-1_29_4)"/>
<path d="M26.7025 12.236C26.6332 13.3107 26.4425 14.238 26.1305 15.018C25.8185 15.7807 25.3678 16.4567 24.7785 17.046C24.2065 17.618 23.5045 18.138 22.6725 18.606C21.8405 19.074 20.8698 19.5247 19.7605 19.958C19.7605 20.062 19.7518 20.1747 19.7345 20.296C19.7345 20.4 19.7345 20.5127 19.7345 20.634C19.7345 20.8593 19.7518 21.0933 19.7865 21.336C19.8212 21.5787 19.8818 21.804 19.9685 22.012C20.0552 22.22 20.1765 22.3933 20.3325 22.532C20.4885 22.6533 20.6878 22.714 20.9305 22.714C21.3985 22.714 21.8578 22.61 22.3085 22.402C22.7592 22.194 23.1838 21.9427 23.5825 21.648C23.9985 21.336 24.3798 21.0067 24.7265 20.66C25.0905 20.296 25.4112 19.9667 25.6885 19.672C25.8618 19.828 26.0092 19.9753 26.1305 20.114C25.3505 21.154 24.4925 22.0207 23.5565 22.714C22.6378 23.39 21.7625 23.8233 20.9305 24.014C19.7345 23.8753 18.7985 23.442 18.1225 22.714C17.4638 21.9687 17.1345 21.076 17.1345 20.036C17.1345 19.3253 17.2298 18.606 17.4205 17.878C17.6285 17.1327 17.9058 16.422 18.2525 15.746C18.6165 15.0527 19.0325 14.4027 19.5005 13.796C19.9858 13.1893 20.4972 12.6607 21.0345 12.21C21.5892 11.7593 22.1525 11.404 22.7245 11.144C23.3138 10.884 23.8945 10.754 24.4665 10.754C25.2638 10.858 26.0092 11.352 26.7025 12.236ZM24.9085 13.094C24.4405 13.1633 23.9552 13.354 23.4525 13.666C22.9498 13.978 22.4732 14.394 22.0225 14.914C21.5892 15.434 21.1905 16.0407 20.8265 16.734C20.4625 17.4273 20.1765 18.1727 19.9685 18.97C21.3552 18.2767 22.5078 17.4273 23.4265 16.422C24.3452 15.3993 24.8392 14.29 24.9085 13.094Z" stroke="black" stroke-width="2" mask="url(#path-1-outside-1_29_4)"/>
<path d="M27.2822 22.48C27.3689 21.9773 27.5162 21.3187 27.7242 20.504C27.9496 19.672 28.2096 18.7967 28.5042 17.878C28.7989 16.942 29.1109 16.006 29.4402 15.07C29.7696 14.134 30.0902 13.2933 30.4022 12.548C30.6276 12.0107 30.8269 11.5947 31.0002 11.3C31.1736 10.988 31.3642 10.728 31.5722 10.52C31.8149 10.5547 32.0662 10.6153 32.3262 10.702C32.5862 10.7887 32.8376 10.8927 33.0802 11.014C33.3229 11.1353 33.5396 11.2653 33.7302 11.404C33.9209 11.5253 34.0682 11.6467 34.1722 11.768C33.7042 12.3227 33.2882 12.9553 32.9242 13.666C32.5776 14.3767 32.2222 15.2867 31.8582 16.396C32.7942 15.564 33.6176 14.7667 34.3282 14.004C35.0562 13.2413 35.7322 12.392 36.3562 11.456C36.4602 11.3693 36.6422 11.326 36.9022 11.326C37.1449 11.326 37.3789 11.3693 37.6042 11.456C37.8296 11.5253 37.9856 11.6293 38.0722 11.768C37.7602 12.6 37.6042 13.4233 37.6042 14.238C37.6042 15.0007 37.7169 15.5727 37.9422 15.954C37.9249 16.058 37.8036 16.2573 37.5782 16.552C37.3702 16.8467 37.1362 17.124 36.8762 17.384C36.4082 17.1413 35.9922 16.812 35.6282 16.396C35.2642 15.9627 34.9956 15.4947 34.8222 14.992C34.0076 15.564 33.3142 16.1273 32.7422 16.682C32.1702 17.2193 31.6762 17.826 31.2602 18.502C30.8616 19.1607 30.5149 19.9233 30.2202 20.79C29.9429 21.6567 29.6742 22.688 29.4142 23.884C29.2582 23.8667 29.0676 23.806 28.8422 23.702C28.6342 23.6153 28.4176 23.5027 28.1922 23.364C27.9842 23.2253 27.7936 23.078 27.6202 22.922C27.4469 22.766 27.3342 22.6187 27.2822 22.48Z" stroke="black" stroke-width="2" mask="url(#path-1-outside-1_29_4)"/>
<path d="M46.9563 12.652C46.939 12.9813 46.8783 13.328 46.7743 13.692C46.6876 14.0387 46.575 14.3593 46.4363 14.654C46.2976 14.9313 46.1503 15.1653 45.9943 15.356C45.8383 15.5467 45.691 15.642 45.5523 15.642C45.3616 15.6247 45.249 15.4947 45.2143 15.252C45.2143 15.2 45.2316 15.122 45.2663 15.018C45.3183 14.8967 45.3703 14.7667 45.4223 14.628C45.4743 14.4893 45.5176 14.3507 45.5523 14.212C45.6043 14.0733 45.6303 13.952 45.6303 13.848C45.6303 13.6053 45.5696 13.406 45.4483 13.25C45.3443 13.0767 45.197 12.99 45.0063 12.99C44.313 12.99 43.7843 13.4233 43.4203 14.29C43.0563 15.1567 42.8743 16.4307 42.8743 18.112C42.8743 18.2853 42.883 18.3893 42.9003 18.424C43.2643 18.4067 43.585 18.398 43.8623 18.398C44.157 18.3807 44.443 18.372 44.7203 18.372C44.7376 18.4067 44.7463 18.476 44.7463 18.58C44.7463 18.736 44.7116 18.8487 44.6423 18.918C44.2436 19.0047 43.923 19.0827 43.6803 19.152C43.455 19.204 43.2816 19.256 43.1603 19.308C43.039 19.36 42.961 19.4207 42.9263 19.49C42.909 19.542 42.9003 19.62 42.9003 19.724C42.9003 19.8627 42.9003 20.0013 42.9003 20.14C42.9176 20.2787 42.9263 20.452 42.9263 20.66C42.9263 22.116 42.5276 23.286 41.7303 24.17C40.9503 25.054 39.8583 25.5653 38.4543 25.704C38.2116 25.6867 37.9603 25.6173 37.7003 25.496C37.4403 25.3747 37.189 25.2187 36.9463 25.028C36.721 24.8373 36.5216 24.6207 36.3483 24.378C36.175 24.1527 36.0536 23.9187 35.9843 23.676C35.9843 23.0173 36.123 22.3933 36.4003 21.804C36.6776 21.1973 37.0503 20.6687 37.5183 20.218C38.0036 19.75 38.567 19.3773 39.2083 19.1C39.867 18.8053 40.5776 18.632 41.3403 18.58C41.3403 18.1467 41.297 17.722 41.2103 17.306C41.1236 16.89 41.0283 16.4913 40.9243 16.11C40.8376 15.7113 40.751 15.33 40.6643 14.966C40.5776 14.5847 40.5343 14.212 40.5343 13.848C40.5343 13.38 40.6296 12.9207 40.8203 12.47C41.011 12.002 41.2623 11.5773 41.5743 11.196C41.8863 10.7973 42.2503 10.4593 42.6663 10.182C43.0823 9.90468 43.5156 9.71401 43.9663 9.61001C44.157 9.66201 44.4083 9.81801 44.7203 10.078C45.0496 10.3207 45.3703 10.598 45.6823 10.91C45.9943 11.222 46.2716 11.5427 46.5143 11.872C46.757 12.184 46.9043 12.444 46.9563 12.652ZM38.3763 24.508C38.7923 24.3347 39.1823 24.0833 39.5463 23.754C39.9276 23.4247 40.257 23.052 40.5343 22.636C40.8116 22.22 41.0283 21.778 41.1843 21.31C41.3576 20.842 41.4443 20.3827 41.4443 19.932C41.0976 19.984 40.7163 20.1487 40.3003 20.426C39.8843 20.686 39.4943 21.0067 39.1303 21.388C38.7663 21.752 38.463 22.1333 38.2203 22.532C37.9776 22.9307 37.8563 23.2773 37.8563 23.572C37.8563 23.9533 38.0296 24.2653 38.3763 24.508Z" stroke="black" stroke-width="2" mask="url(#path-1-outside-1_29_4)"/>
<path d="M50.0426 23.91C49.0546 23.806 48.2659 23.3727 47.6766 22.61C47.0872 21.8473 46.7926 20.8767 46.7926 19.698C46.7926 19.0047 46.8966 18.2853 47.1046 17.54C47.3126 16.7947 47.6072 16.0753 47.9886 15.382C48.3699 14.6713 48.8206 14.004 49.3406 13.38C49.8606 12.756 50.4239 12.2187 51.0306 11.768C51.9839 11.0573 52.8766 10.702 53.7086 10.702C54.2632 10.9967 54.8092 11.612 55.3466 12.548C55.4332 12.548 55.5112 12.548 55.5806 12.548C55.6499 12.5307 55.7279 12.522 55.8146 12.522C56.7332 12.522 57.1926 13.3367 57.1926 14.966C57.1926 16.058 57.0106 17.098 56.6466 18.086C56.2999 19.0567 55.8059 19.9407 55.1646 20.738C54.5406 21.5353 53.7866 22.2113 52.9026 22.766C52.0359 23.3033 51.0826 23.6847 50.0426 23.91ZM51.3686 15.72C51.0739 16.1187 50.7966 16.552 50.5366 17.02C50.2766 17.488 50.0512 17.9647 49.8606 18.45C49.6699 18.918 49.5226 19.3773 49.4186 19.828C49.3146 20.2613 49.2626 20.6513 49.2626 20.998C49.2626 21.414 49.3319 21.8127 49.4706 22.194C49.6092 22.5753 49.7652 22.792 49.9386 22.844C50.7186 22.6707 51.4292 22.35 52.0706 21.882C52.7292 21.3967 53.2926 20.7987 53.7606 20.088C54.2459 19.3773 54.6186 18.5713 54.8786 17.67C55.1559 16.7687 55.2946 15.8067 55.2946 14.784C55.2946 14.3333 55.2686 13.978 55.2166 13.718C55.1646 13.458 55.0779 13.2327 54.9566 13.042C54.1939 13.2673 53.5092 13.6313 52.9026 14.134C52.3132 14.6367 51.8019 15.1653 51.3686 15.72Z" stroke="black" stroke-width="2" mask="url(#path-1-outside-1_29_4)"/>
<path d="M62.6631 10.39C63.1138 10.5287 63.5385 10.8407 63.9371 11.326C64.3358 11.794 64.6305 12.314 64.8211 12.886C64.6305 13.354 64.3358 13.9173 63.9371 14.576C63.5385 15.2347 63.1398 15.9107 62.7411 16.604C62.3425 17.28 61.9785 17.93 61.6491 18.554C61.3371 19.1607 61.1551 19.6633 61.1031 20.062C61.3805 19.7673 61.6838 19.4293 62.0131 19.048C62.3598 18.6493 62.6891 18.2593 63.0011 17.878C63.3305 17.4793 63.6338 17.124 63.9111 16.812C64.1885 16.4827 64.4051 16.24 64.5611 16.084C64.8905 15.7373 65.2805 15.3387 65.7311 14.888C66.1818 14.42 66.6498 13.9867 67.1351 13.588C67.6378 13.172 68.1405 12.8253 68.6431 12.548C69.1458 12.2533 69.6051 12.106 70.0211 12.106C70.4718 12.106 70.8445 12.262 71.1391 12.574C71.4511 12.8687 71.6938 13.1807 71.8671 13.51C71.8671 13.5447 71.7978 13.5967 71.6591 13.666C71.5378 13.718 71.3558 13.8827 71.1131 14.16C70.8705 14.472 70.5932 14.9053 70.2812 15.46C69.9865 15.9973 69.6918 16.5867 69.3971 17.228C69.1198 17.852 68.8858 18.4933 68.6951 19.152C68.5045 19.8107 68.4091 20.4087 68.4091 20.946C68.4091 21.3793 68.4611 21.6567 68.5651 21.778C68.6865 21.8993 68.8511 21.96 69.0591 21.96C69.2498 21.96 69.4491 21.9167 69.6571 21.83C69.8651 21.7433 70.0298 21.7 70.1511 21.7C70.2205 21.7347 70.2725 21.8127 70.3071 21.934C70.3591 22.038 70.3851 22.1333 70.3851 22.22C70.2465 22.3413 70.0818 22.4627 69.8911 22.584C69.7005 22.7053 69.5011 22.818 69.2931 22.922C69.0851 23.026 68.8771 23.1127 68.6691 23.182C68.4785 23.2513 68.3051 23.286 68.1491 23.286C67.6465 23.286 67.2305 23.208 66.9011 23.052C66.5891 22.9133 66.3378 22.7227 66.1471 22.48C65.9738 22.2373 65.8525 21.9513 65.7831 21.622C65.7138 21.2753 65.6791 20.9113 65.6791 20.53C65.6791 20.322 65.6965 20.088 65.7311 19.828C65.7658 19.568 65.8351 19.2647 65.9391 18.918C66.0431 18.554 66.1905 18.1293 66.3811 17.644C66.5718 17.1413 66.8145 16.5433 67.1091 15.85C67.0745 15.85 66.8405 15.9713 66.4072 16.214C65.9738 16.4567 65.5058 16.8293 65.0031 17.332C64.1885 18.112 63.4518 18.8833 62.7931 19.646C62.1518 20.4087 61.4931 21.258 60.8171 22.194C60.4358 22.7313 60.0978 23.182 59.8031 23.546C59.5258 23.9273 59.2831 24.1787 59.0751 24.3C58.7111 24.092 58.4425 23.7973 58.2691 23.416C58.0958 23.052 57.9658 22.6707 57.8791 22.272C57.8791 21.9427 57.9225 21.5267 58.0091 21.024C58.1131 20.5213 58.2431 19.9667 58.3991 19.36C58.5725 18.736 58.7805 18.086 59.0231 17.41C59.2658 16.734 59.5345 16.058 59.8291 15.382C60.4878 13.8567 61.0858 12.6607 61.6231 11.794C62.1778 10.9273 62.5245 10.4593 62.6631 10.39Z" stroke="black" stroke-width="2" mask="url(#path-1-outside-1_29_4)"/>
<path d="M81.4622 12.496C81.6355 12.496 81.8348 12.5307 82.0602 12.6C82.3028 12.652 82.5195 12.73 82.7102 12.834C82.9008 12.9207 83.0568 13.016 83.1782 13.12C83.3168 13.224 83.3862 13.3193 83.3862 13.406C83.0395 14.134 82.7188 14.8707 82.4242 15.616C82.1295 16.344 81.8782 17.046 81.6702 17.722C81.4622 18.398 81.2975 19.0307 81.1762 19.62C81.0722 20.2093 81.0202 20.7207 81.0202 21.154C81.0202 21.6393 81.0722 22.0467 81.1762 22.376C81.2802 22.688 81.4535 22.9133 81.6962 23.052C81.4882 23.1907 81.2195 23.3033 80.8902 23.39C80.5608 23.4767 80.2662 23.52 80.0062 23.52C79.0702 23.52 78.6022 22.8787 78.6022 21.596C78.6022 20.608 78.9315 19.256 79.5902 17.54C79.2435 18.3373 78.8448 19.0913 78.3942 19.802C77.9435 20.4953 77.4842 21.1107 77.0162 21.648C76.5482 22.1853 76.0715 22.6273 75.5862 22.974C75.1182 23.3033 74.6848 23.5027 74.2862 23.572C73.6448 23.5373 73.1248 23.234 72.7262 22.662C72.3275 22.0727 72.1282 21.3273 72.1282 20.426C72.1282 19.4553 72.3362 18.4327 72.7522 17.358C73.1682 16.2833 73.6968 15.2867 74.3382 14.368C74.9968 13.4493 75.7075 12.6867 76.4702 12.08C77.2328 11.456 77.9695 11.1267 78.6802 11.092C78.8535 11.144 79.0442 11.248 79.2522 11.404C79.4775 11.56 79.6855 11.742 79.8762 11.95C80.0842 12.158 80.2575 12.3747 80.3962 12.6C80.5348 12.808 80.6128 12.99 80.6302 13.146C79.9368 13.25 79.2175 13.588 78.4722 14.16C77.7442 14.732 77.0768 15.4253 76.4702 16.24C75.8808 17.0373 75.3955 17.8953 75.0142 18.814C74.6328 19.7327 74.4422 20.5907 74.4422 21.388C74.4422 21.7173 74.5635 21.9253 74.8062 22.012C75.3088 21.908 75.8895 21.4833 76.5482 20.738C77.2068 19.9753 78.0042 18.8053 78.9402 17.228C79.1135 16.916 79.3042 16.5693 79.5122 16.188C79.7375 15.8067 79.9628 15.408 80.1882 14.992C80.4135 14.576 80.6302 14.16 80.8382 13.744C81.0635 13.3107 81.2715 12.8947 81.4622 12.496Z" stroke="black" stroke-width="2" mask="url(#path-1-outside-1_29_4)"/>
<path d="M84.6791 21.336C84.6791 20.5733 84.8611 19.5073 85.2251 18.138C85.5891 16.7513 86.1004 15.1393 86.7591 13.302C87.8337 10.3727 88.8391 7.93735 89.7751 5.99601C90.7284 4.03735 91.6557 2.51201 92.5571 1.42001C92.7651 1.45468 93.0164 1.54135 93.3111 1.68001C93.6231 1.81868 93.9264 1.97468 94.2211 2.14801C94.5157 2.30401 94.7757 2.46868 95.0011 2.64201C95.2437 2.81535 95.3997 2.95401 95.4691 3.05801C94.1171 4.65268 92.9297 6.36868 91.9071 8.20601C90.8844 10.0433 89.9484 12.1493 89.0991 14.524C88.3711 16.5693 87.8164 18.4153 87.4351 20.062C87.0537 21.6913 86.8631 23.052 86.8631 24.144C86.8631 24.4387 86.8631 24.6207 86.8631 24.69C86.8631 24.7593 86.8717 24.8287 86.8891 24.898C86.6464 24.8633 86.4384 24.8027 86.2651 24.716C86.0917 24.6293 85.9791 24.5253 85.9271 24.404C85.8924 24.3173 85.7971 24.1873 85.6411 24.014C85.4851 23.858 85.3464 23.7367 85.2251 23.65C85.0691 23.546 84.9391 23.2773 84.8351 22.844C84.7311 22.3933 84.6791 21.8907 84.6791 21.336Z" stroke="black" stroke-width="2" mask="url(#path-1-outside-1_29_4)"/>
<path d="M106.899 3.78601C107.558 3.78601 108.242 3.90735 108.953 4.15001C109.664 4.39268 110.288 4.70468 110.825 5.08601C110.652 5.97001 110.487 6.76735 110.331 7.47801C110.192 8.18868 110.062 8.83868 109.941 9.42801C109.82 10 109.698 10.5287 109.577 11.014C109.473 11.482 109.369 11.924 109.265 12.34C108.849 13.9 108.416 15.3127 107.965 16.578C107.532 17.826 107.064 18.9527 106.561 19.958C106.076 20.9633 105.556 21.856 105.001 22.636C104.464 23.416 103.883 24.1007 103.259 24.69C102.652 25.262 102.046 25.73 101.439 26.094C100.832 26.458 100.269 26.692 99.7489 26.796C99.0556 26.796 98.4142 26.718 97.8249 26.562C97.2356 26.406 96.7242 26.1893 96.2909 25.912C95.8749 25.652 95.5456 25.3313 95.3029 24.95C95.0776 24.586 94.9649 24.1787 94.9649 23.728C94.9649 23.2427 95.0862 22.636 95.3289 21.908C95.5716 21.1627 95.9442 20.2873 96.4469 19.282C96.6549 19.2993 96.8976 19.3513 97.1749 19.438C97.4522 19.5247 97.7296 19.6287 98.0069 19.75C98.2842 19.8713 98.5356 20.01 98.7609 20.166C98.9862 20.3047 99.1509 20.4433 99.2549 20.582C98.7002 21.154 98.2496 21.7867 97.9029 22.48C97.5562 23.156 97.3829 23.7453 97.3829 24.248C97.3829 24.5427 97.4349 24.8027 97.5389 25.028C97.6602 25.2707 97.8596 25.4873 98.1369 25.678C99.1942 25.2793 100.226 24.534 101.231 23.442C102.236 22.3673 103.129 21.024 103.909 19.412C104.377 18.4587 104.802 17.3667 105.183 16.136C105.564 14.9053 105.885 13.6747 106.145 12.444C106.422 11.196 106.63 10.0087 106.769 8.88201C106.925 7.73801 107.003 6.77601 107.003 5.99601C107.003 5.87468 106.994 5.71001 106.977 5.50201C106.977 5.27668 106.968 5.05135 106.951 4.82601C106.951 4.58335 106.942 4.36668 106.925 4.17601C106.908 3.98535 106.899 3.85535 106.899 3.78601Z" stroke="black" stroke-width="2" mask="url(#path-1-outside-1_29_4)"/>
<path d="M113.037 23.91C112.049 23.806 111.26 23.3727 110.671 22.61C110.081 21.8473 109.787 20.8767 109.787 19.698C109.787 19.0047 109.891 18.2853 110.099 17.54C110.307 16.7947 110.601 16.0753 110.983 15.382C111.364 14.6713 111.815 14.004 112.335 13.38C112.855 12.756 113.418 12.2187 114.025 11.768C114.978 11.0573 115.871 10.702 116.703 10.702C117.257 10.9967 117.803 11.612 118.341 12.548C118.427 12.548 118.505 12.548 118.575 12.548C118.644 12.5307 118.722 12.522 118.809 12.522C119.727 12.522 120.187 13.3367 120.187 14.966C120.187 16.058 120.005 17.098 119.641 18.086C119.294 19.0567 118.8 19.9407 118.159 20.738C117.535 21.5353 116.781 22.2113 115.897 22.766C115.03 23.3033 114.077 23.6847 113.037 23.91ZM114.363 15.72C114.068 16.1187 113.791 16.552 113.531 17.02C113.271 17.488 113.045 17.9647 112.855 18.45C112.664 18.918 112.517 19.3773 112.413 19.828C112.309 20.2613 112.257 20.6513 112.257 20.998C112.257 21.414 112.326 21.8127 112.465 22.194C112.603 22.5753 112.759 22.792 112.933 22.844C113.713 22.6707 114.423 22.35 115.065 21.882C115.723 21.3967 116.287 20.7987 116.755 20.088C117.24 19.3773 117.613 18.5713 117.873 17.67C118.15 16.7687 118.289 15.8067 118.289 14.784C118.289 14.3333 118.263 13.978 118.211 13.718C118.159 13.458 118.072 13.2327 117.951 13.042C117.188 13.2673 116.503 13.6313 115.897 14.134C115.307 14.6367 114.796 15.1653 114.363 15.72Z" stroke="black" stroke-width="2" mask="url(#path-1-outside-1_29_4)"/>
<path d="M128.517 22.428C128.188 22.1507 127.963 21.804 127.841 21.388C127.737 20.972 127.685 20.6167 127.685 20.322C127.685 19.958 127.729 19.646 127.815 19.386C127.746 19.386 127.59 19.5247 127.347 19.802C127.105 20.0793 126.836 20.4087 126.541 20.79C126.264 21.1713 125.987 21.544 125.709 21.908C125.432 22.272 125.224 22.5407 125.085 22.714C124.86 22.9567 124.643 23.1473 124.435 23.286C124.245 23.4247 124.089 23.5027 123.967 23.52C123.69 23.5027 123.395 23.442 123.083 23.338C122.789 23.2513 122.503 23.1213 122.225 22.948C121.965 22.7747 121.731 22.5667 121.523 22.324C121.333 22.0813 121.203 21.804 121.133 21.492C121.133 21.0067 121.142 20.608 121.159 20.296C121.194 19.984 121.255 19.646 121.341 19.282C121.497 18.6233 121.723 17.878 122.017 17.046C122.329 16.214 122.685 15.3993 123.083 14.602C123.482 13.7873 123.924 13.0333 124.409 12.34C124.912 11.6293 125.441 11.0747 125.995 10.676C126.151 10.676 126.333 10.6933 126.541 10.728C126.749 10.7453 126.957 10.7887 127.165 10.858C127.391 10.9273 127.599 11.014 127.789 11.118C127.997 11.2047 128.171 11.326 128.309 11.482C128.153 11.6553 127.755 12.236 127.113 13.224C126.489 14.212 125.787 15.6333 125.007 17.488C124.921 17.6787 124.817 17.956 124.695 18.32C124.574 18.684 124.453 19.0653 124.331 19.464C124.21 19.8627 124.106 20.2527 124.019 20.634C123.95 21.0153 123.915 21.3187 123.915 21.544C123.915 21.6827 123.933 21.7867 123.967 21.856C124.019 21.9253 124.063 21.9773 124.097 22.012C124.357 21.908 124.687 21.622 125.085 21.154C125.484 20.686 126.039 19.9667 126.749 18.996C126.923 18.7533 127.122 18.476 127.347 18.164C127.59 17.852 127.833 17.5227 128.075 17.176C128.318 16.812 128.543 16.4393 128.751 16.058C128.977 15.6767 129.159 15.2953 129.297 14.914C129.367 14.706 129.453 14.4633 129.557 14.186C129.679 13.8913 129.817 13.588 129.973 13.276C130.147 12.964 130.337 12.652 130.545 12.34C130.771 12.0107 131.031 11.7073 131.325 11.43C131.551 11.43 131.793 11.456 132.053 11.508C132.313 11.56 132.556 11.6293 132.781 11.716C133.024 11.7853 133.232 11.872 133.405 11.976C133.579 12.0627 133.709 12.158 133.795 12.262C133.483 13.0247 133.137 13.7787 132.755 14.524C132.374 15.2693 132.019 16.006 131.689 16.734C131.36 17.4447 131.083 18.1553 130.857 18.866C130.632 19.5767 130.519 20.27 130.519 20.946C130.519 21.31 130.545 21.6307 130.597 21.908C130.667 22.168 130.736 22.3933 130.805 22.584C130.875 22.7573 130.935 22.9047 130.987 23.026C131.057 23.1473 131.091 23.2513 131.091 23.338C131.091 23.3553 131.074 23.3813 131.039 23.416C131.022 23.4333 131.005 23.442 130.987 23.442C130.866 23.442 130.71 23.416 130.519 23.364C130.329 23.312 130.112 23.234 129.869 23.13C129.644 23.0433 129.41 22.9393 129.167 22.818C128.942 22.6967 128.725 22.5667 128.517 22.428Z" stroke="black" stroke-width="2" mask="url(#path-1-outside-1_29_4)"/>
<path d="M133.669 22.48C133.756 21.9773 133.903 21.3187 134.111 20.504C134.336 19.672 134.596 18.7967 134.891 17.878C135.186 16.942 135.498 16.006 135.827 15.07C136.156 14.134 136.477 13.2933 136.789 12.548C137.014 12.0107 137.214 11.5947 137.387 11.3C137.56 10.988 137.751 10.728 137.959 10.52C138.202 10.5547 138.453 10.6153 138.713 10.702C138.973 10.7887 139.224 10.8927 139.467 11.014C139.71 11.1353 139.926 11.2653 140.117 11.404C140.308 11.5253 140.455 11.6467 140.559 11.768C140.091 12.3227 139.675 12.9553 139.311 13.666C138.964 14.3767 138.609 15.2867 138.245 16.396C139.181 15.564 140.004 14.7667 140.715 14.004C141.443 13.2413 142.119 12.392 142.743 11.456C142.847 11.3693 143.029 11.326 143.289 11.326C143.532 11.326 143.766 11.3693 143.991 11.456C144.216 11.5253 144.372 11.6293 144.459 11.768C144.147 12.6 143.991 13.4233 143.991 14.238C143.991 15.0007 144.104 15.5727 144.329 15.954C144.312 16.058 144.19 16.2573 143.965 16.552C143.757 16.8467 143.523 17.124 143.263 17.384C142.795 17.1413 142.379 16.812 142.015 16.396C141.651 15.9627 141.382 15.4947 141.209 14.992C140.394 15.564 139.701 16.1273 139.129 16.682C138.557 17.2193 138.063 17.826 137.647 18.502C137.248 19.1607 136.902 19.9233 136.607 20.79C136.33 21.6567 136.061 22.688 135.801 23.884C135.645 23.8667 135.454 23.806 135.229 23.702C135.021 23.6153 134.804 23.5027 134.579 23.364C134.371 23.2253 134.18 23.078 134.007 22.922C133.834 22.766 133.721 22.6187 133.669 22.48Z" stroke="black" stroke-width="2" mask="url(#path-1-outside-1_29_4)"/>
<path d="M148.991 10.39C149.442 10.5287 149.867 10.8407 150.265 11.326C150.664 11.794 150.959 12.314 151.149 12.886C150.959 13.354 150.664 13.9173 150.265 14.576C149.867 15.2347 149.468 15.9107 149.069 16.604C148.671 17.28 148.307 17.93 147.977 18.554C147.665 19.1607 147.483 19.6633 147.431 20.062C147.709 19.7673 148.012 19.4293 148.341 19.048C148.688 18.6493 149.017 18.2593 149.329 17.878C149.659 17.4793 149.962 17.124 150.239 16.812C150.517 16.4827 150.733 16.24 150.889 16.084C151.219 15.7373 151.609 15.3387 152.059 14.888C152.51 14.42 152.978 13.9867 153.463 13.588C153.966 13.172 154.469 12.8253 154.971 12.548C155.474 12.2533 155.933 12.106 156.349 12.106C156.8 12.106 157.173 12.262 157.467 12.574C157.779 12.8687 158.022 13.1807 158.195 13.51C158.195 13.5447 158.126 13.5967 157.987 13.666C157.866 13.718 157.684 13.8827 157.441 14.16C157.199 14.472 156.921 14.9053 156.609 15.46C156.315 15.9973 156.02 16.5867 155.725 17.228C155.448 17.852 155.214 18.4933 155.023 19.152C154.833 19.8107 154.737 20.4087 154.737 20.946C154.737 21.3793 154.789 21.6567 154.893 21.778C155.015 21.8993 155.179 21.96 155.387 21.96C155.578 21.96 155.777 21.9167 155.985 21.83C156.193 21.7433 156.358 21.7 156.479 21.7C156.549 21.7347 156.601 21.8127 156.635 21.934C156.687 22.038 156.713 22.1333 156.713 22.22C156.575 22.3413 156.41 22.4627 156.219 22.584C156.029 22.7053 155.829 22.818 155.621 22.922C155.413 23.026 155.205 23.1127 154.997 23.182C154.807 23.2513 154.633 23.286 154.477 23.286C153.975 23.286 153.559 23.208 153.229 23.052C152.917 22.9133 152.666 22.7227 152.475 22.48C152.302 22.2373 152.181 21.9513 152.111 21.622C152.042 21.2753 152.007 20.9113 152.007 20.53C152.007 20.322 152.025 20.088 152.059 19.828C152.094 19.568 152.163 19.2647 152.267 18.918C152.371 18.554 152.519 18.1293 152.709 17.644C152.9 17.1413 153.143 16.5433 153.437 15.85C153.403 15.85 153.169 15.9713 152.735 16.214C152.302 16.4567 151.834 16.8293 151.331 17.332C150.517 18.112 149.78 18.8833 149.121 19.646C148.48 20.4087 147.821 21.258 147.145 22.194C146.764 22.7313 146.426 23.182 146.131 23.546C145.854 23.9273 145.611 24.1787 145.403 24.3C145.039 24.092 144.771 23.7973 144.597 23.416C144.424 23.052 144.294 22.6707 144.207 22.272C144.207 21.9427 144.251 21.5267 144.337 21.024C144.441 20.5213 144.571 19.9667 144.727 19.36C144.901 18.736 145.109 18.086 145.351 17.41C145.594 16.734 145.863 16.058 146.157 15.382C146.816 13.8567 147.414 12.6607 147.951 11.794C148.506 10.9273 148.853 10.4593 148.991 10.39Z" stroke="black" stroke-width="2" mask="url(#path-1-outside-1_29_4)"/>
<path d="M167.79 12.496C167.964 12.496 168.163 12.5307 168.388 12.6C168.631 12.652 168.848 12.73 169.038 12.834C169.229 12.9207 169.385 13.016 169.506 13.12C169.645 13.224 169.714 13.3193 169.714 13.406C169.368 14.134 169.047 14.8707 168.752 15.616C168.458 16.344 168.206 17.046 167.998 17.722C167.79 18.398 167.626 19.0307 167.504 19.62C167.4 20.2093 167.348 20.7207 167.348 21.154C167.348 21.6393 167.4 22.0467 167.504 22.376C167.608 22.688 167.782 22.9133 168.024 23.052C167.816 23.1907 167.548 23.3033 167.218 23.39C166.889 23.4767 166.594 23.52 166.334 23.52C165.398 23.52 164.93 22.8787 164.93 21.596C164.93 20.608 165.26 19.256 165.918 17.54C165.572 18.3373 165.173 19.0913 164.722 19.802C164.272 20.4953 163.812 21.1107 163.344 21.648C162.876 22.1853 162.4 22.6273 161.914 22.974C161.446 23.3033 161.013 23.5027 160.614 23.572C159.973 23.5373 159.453 23.234 159.054 22.662C158.656 22.0727 158.456 21.3273 158.456 20.426C158.456 19.4553 158.664 18.4327 159.08 17.358C159.496 16.2833 160.025 15.2867 160.666 14.368C161.325 13.4493 162.036 12.6867 162.798 12.08C163.561 11.456 164.298 11.1267 165.008 11.092C165.182 11.144 165.372 11.248 165.58 11.404C165.806 11.56 166.014 11.742 166.204 11.95C166.412 12.158 166.586 12.3747 166.724 12.6C166.863 12.808 166.941 12.99 166.958 13.146C166.265 13.25 165.546 13.588 164.8 14.16C164.072 14.732 163.405 15.4253 162.798 16.24C162.209 17.0373 161.724 17.8953 161.342 18.814C160.961 19.7327 160.77 20.5907 160.77 21.388C160.77 21.7173 160.892 21.9253 161.134 22.012C161.637 21.908 162.218 21.4833 162.876 20.738C163.535 19.9753 164.332 18.8053 165.268 17.228C165.442 16.916 165.632 16.5693 165.84 16.188C166.066 15.8067 166.291 15.408 166.516 14.992C166.742 14.576 166.958 14.16 167.166 13.744C167.392 13.3107 167.6 12.8947 167.79 12.496Z" stroke="black" stroke-width="2" mask="url(#path-1-outside-1_29_4)"/>
<path d="M171.007 21.336C171.007 20.5733 171.189 19.5073 171.553 18.138C171.917 16.7513 172.429 15.1393 173.087 13.302C174.162 10.3727 175.167 7.93735 176.103 5.99601C177.056 4.03735 177.984 2.51201 178.885 1.42001C179.093 1.45468 179.345 1.54135 179.639 1.68001C179.951 1.81868 180.254 1.97468 180.549 2.14801C180.844 2.30401 181.104 2.46868 181.329 2.64201C181.572 2.81535 181.728 2.95401 181.797 3.05801C180.445 4.65268 179.258 6.36868 178.235 8.20601C177.213 10.0433 176.277 12.1493 175.427 14.524C174.699 16.5693 174.145 18.4153 173.763 20.062C173.382 21.6913 173.191 23.052 173.191 24.144C173.191 24.4387 173.191 24.6207 173.191 24.69C173.191 24.7593 173.2 24.8287 173.217 24.898C172.974 24.8633 172.767 24.8027 172.593 24.716C172.42 24.6293 172.307 24.5253 172.255 24.404C172.221 24.3173 172.125 24.1873 171.969 24.014C171.813 23.858 171.675 23.7367 171.553 23.65C171.397 23.546 171.267 23.2773 171.163 22.844C171.059 22.3933 171.007 21.8907 171.007 21.336Z" stroke="black" stroke-width="2" mask="url(#path-1-outside-1_29_4)"/>
</svg>
